<?xml version="1.0" encoding="UTF-8" standalone="no"?>
<!DOCTYPE svg PUBLIC "-//W3C//DTD SVG 1.1//EN"
 "http://www.w3.org/Graphics/SVG/1.1/DTD/svg11.dtd">
<!-- Generated by graphviz version 12.2.1 (20241206.2353)
 -->
<!-- Pages: 1 -->
<svg width="522pt" height="785pt"
 viewBox="0.00 0.00 250.44 377.00" xmlns="http://www.w3.org/2000/svg" xmlns:xlink="http://www.w3.org/1999/xlink">
<g id="graph0" class="graph" transform="scale(2.08333 2.08333) rotate(0) translate(4 373)">
<polygon fill="white" stroke="none" points="-4,4 -4,-373 246.44,-373 246.44,4 -4,4"/>
<!-- o -->
<g id="node1" class="node">
<title>o</title>
<path fill="lightblue" stroke="black" d="M154.56,-119.25C154.56,-119.25 124.56,-119.25 124.56,-119.25 118.56,-119.25 112.56,-113.25 112.56,-107.25 112.56,-107.25 112.56,-95.25 112.56,-95.25 112.56,-89.25 118.56,-83.25 124.56,-83.25 124.56,-83.25 154.56,-83.25 154.56,-83.25 160.56,-83.25 166.56,-89.25 166.56,-95.25 166.56,-95.25 166.56,-107.25 166.56,-107.25 166.56,-113.25 160.56,-119.25 154.56,-119.25"/>
<text text-anchor="middle" x="139.56" y="-96.97" font-family="Times,serif" font-size="12.00">o</text>
</g>
<!-- c -->
<g id="node2" class="node">
<title>c</title>
<path fill="lightblue" stroke="black" d="M154.56,-36C154.56,-36 124.56,-36 124.56,-36 118.56,-36 112.56,-30 112.56,-24 112.56,-24 112.56,-12 112.56,-12 112.56,-6 118.56,0 124.56,0 124.56,0 154.56,0 154.56,0 160.56,0 166.56,-6 166.56,-12 166.56,-12 166.56,-24 166.56,-24 166.56,-30 160.56,-36 154.56,-36"/>
<text text-anchor="middle" x="139.56" y="-13.72" font-family="Times,serif" font-size="12.00">c</text>
</g>
<!-- o&#45;&#45;c -->
<g id="edge1" class="edge">
<title>o&#45;&#45;c</title>
<path fill="none" stroke="black" d="M112.32,-97.03C77.09,-92.24 18.71,-81.97 5.81,-65.25 -22.8,-28.2 65.23,-20.68 112.15,-19.26"/>
<text text-anchor="middle" x="16.68" y="-55.75" font-family="Times,serif" font-size="10.00">JOIN</text>
</g>
<!-- o&#45;&#45;c -->
<g id="edge5" class="edge">
<title>o&#45;&#45;c</title>
<path fill="none" stroke="black" d="M112.18,-94.49C96.27,-89.59 77.5,-80.77 67.81,-65.25 55.08,-44.89 87.19,-31.78 112.49,-24.89"/>
<text text-anchor="middle" x="78.68" y="-55.75" font-family="Times,serif" font-size="10.00">JOIN</text>
</g>
<!-- c&#45;&#45;o -->
<g id="edge2" class="edge">
<title>c&#45;&#45;o</title>
<path fill="none" stroke="black" d="M112.21,-33.16C100.11,-41.48 89.82,-52.8 95.81,-65.25 99.43,-72.79 105.56,-79.21 112.09,-84.42"/>
<text text-anchor="middle" x="106.68" y="-55.75" font-family="Times,serif" font-size="10.00">JOIN</text>
</g>
<!-- c&#45;&#45;o -->
<g id="edge4" class="edge">
<title>c&#45;&#45;o</title>
<path fill="none" stroke="black" d="M139.56,-36.49C139.56,-50.25 139.56,-69.32 139.56,-83.02"/>
<text text-anchor="middle" x="150.43" y="-55.75" font-family="Times,serif" font-size="10.00">JOIN</text>
</g>
<!-- c&#45;&#45;o -->
<g id="edge6" class="edge">
<title>c&#45;&#45;o</title>
<path fill="none" stroke="black" d="M155.34,-36.43C161.09,-44.85 165.54,-55.28 162.56,-65.25 160.68,-71.52 157.28,-77.71 153.66,-83.09"/>
<text text-anchor="middle" x="174.39" y="-55.75" font-family="Times,serif" font-size="10.00">JOIN</text>
</g>
<!-- c&#45;&#45;o -->
<g id="edge8" class="edge">
<title>c&#45;&#45;o</title>
<path fill="none" stroke="black" d="M166.77,-30.38C182.19,-38.65 197.04,-50.88 189.56,-65.25 184.61,-74.74 175.79,-82.19 166.91,-87.73"/>
<text text-anchor="middle" x="202.43" y="-55.75" font-family="Times,serif" font-size="10.00">JOIN</text>
</g>
<!-- c&#45;&#45;o -->
<g id="edge9" class="edge">
<title>c&#45;&#45;o</title>
<path fill="none" stroke="black" d="M166.96,-24C194.74,-30.38 231.76,-43.31 217.56,-65.25 206.42,-82.44 184.63,-91.27 166.9,-95.76"/>
<text text-anchor="middle" x="231.57" y="-55.75" font-family="Times,serif" font-size="10.00">JOIN</text>
</g>
<!-- p -->
<g id="node3" class="node">
<title>p</title>
<path fill="lightblue" stroke="black" d="M154.56,-285.75C154.56,-285.75 124.56,-285.75 124.56,-285.75 118.56,-285.75 112.56,-279.75 112.56,-273.75 112.56,-273.75 112.56,-261.75 112.56,-261.75 112.56,-255.75 118.56,-249.75 124.56,-249.75 124.56,-249.75 154.56,-249.75 154.56,-249.75 160.56,-249.75 166.56,-255.75 166.56,-261.75 166.56,-261.75 166.56,-273.75 166.56,-273.75 166.56,-279.75 160.56,-285.75 154.56,-285.75"/>
<text text-anchor="middle" x="139.56" y="-263.48" font-family="Times,serif" font-size="12.00">p</text>
</g>
<!-- oi -->
<g id="node4" class="node">
<title>oi</title>
<path fill="lightblue" stroke="black" d="M154.56,-202.5C154.56,-202.5 124.56,-202.5 124.56,-202.5 118.56,-202.5 112.56,-196.5 112.56,-190.5 112.56,-190.5 112.56,-178.5 112.56,-178.5 112.56,-172.5 118.56,-166.5 124.56,-166.5 124.56,-166.5 154.56,-166.5 154.56,-166.5 160.56,-166.5 166.56,-172.5 166.56,-178.5 166.56,-178.5 166.56,-190.5 166.56,-190.5 166.56,-196.5 160.56,-202.5 154.56,-202.5"/>
<text text-anchor="middle" x="139.56" y="-180.22" font-family="Times,serif" font-size="12.00">oi</text>
</g>
<!-- p&#45;&#45;oi -->
<g id="edge3" class="edge">
<title>p&#45;&#45;oi</title>
<path fill="none" stroke="black" d="M139.56,-249.52C139.56,-235.82 139.56,-216.75 139.56,-202.99"/>
<text text-anchor="middle" x="150.43" y="-222.25" font-family="Times,serif" font-size="10.00">JOIN</text>
</g>
<!-- oi&#45;&#45;o -->
<g id="edge7" class="edge">
<title>oi&#45;&#45;o</title>
<path fill="none" stroke="black" d="M139.56,-166.27C139.56,-152.57 139.56,-133.5 139.56,-119.74"/>
<text text-anchor="middle" x="150.43" y="-139" font-family="Times,serif" font-size="10.00">JOIN</text>
</g>
<!-- i -->
<g id="node5" class="node">
<title>i</title>
<path fill="lightblue" stroke="black" d="M154.56,-369C154.56,-369 124.56,-369 124.56,-369 118.56,-369 112.56,-363 112.56,-357 112.56,-357 112.56,-345 112.56,-345 112.56,-339 118.56,-333 124.56,-333 124.56,-333 154.56,-333 154.56,-333 160.56,-333 166.56,-339 166.56,-345 166.56,-345 166.56,-357 166.56,-357 166.56,-363 160.56,-369 154.56,-369"/>
<text text-anchor="middle" x="139.56" y="-346.73" font-family="Times,serif" font-size="12.00">i</text>
</g>
<!-- i&#45;&#45;p -->
<g id="edge10" class="edge">
<title>i&#45;&#45;p</title>
<path fill="none" stroke="black" d="M139.56,-332.77C139.56,-319.07 139.56,-300 139.56,-286.24"/>
<text text-anchor="middle" x="150.43" y="-305.5" font-family="Times,serif" font-size="10.00">JOIN</text>
</g>
</g>
</svg>
