<?xml version="1.0" encoding="UTF-8" standalone="no"?>
<!DOCTYPE svg PUBLIC "-//W3C//DTD SVG 1.1//EN"
 "http://www.w3.org/Graphics/SVG/1.1/DTD/svg11.dtd">
<!-- Generated by graphviz version 12.2.1 (20241206.2353)
 -->
<!-- Pages: 1 -->
<svg width="1800pt" height="118pt"
 viewBox="0.00 0.00 864.00 56.56" xmlns="http://www.w3.org/2000/svg" xmlns:xlink="http://www.w3.org/1999/xlink">
<g id="graph0" class="graph" transform="scale(0.401125 0.401125) rotate(0) translate(4 289.75)">
<polygon fill="white" stroke="none" points="-4,4 -4,-289.75 4483.38,-289.75 4483.38,4 -4,4"/>
<!-- order_items -->
<g id="node1" class="node">
<title>order_items</title>
<path fill="lightblue" stroke="black" d="M2178.12,-285.75C2178.12,-285.75 2130.62,-285.75 2130.62,-285.75 2124.62,-285.75 2118.62,-279.75 2118.62,-273.75 2118.62,-273.75 2118.62,-261.75 2118.62,-261.75 2118.62,-255.75 2124.62,-249.75 2130.62,-249.75 2130.62,-249.75 2178.12,-249.75 2178.12,-249.75 2184.12,-249.75 2190.12,-255.75 2190.12,-261.75 2190.12,-261.75 2190.12,-273.75 2190.12,-273.75 2190.12,-279.75 2184.12,-285.75 2178.12,-285.75"/>
<text text-anchor="middle" x="2154.37" y="-263.48" font-family="Times,serif" font-size="12.00">order_items</text>
</g>
<!-- products -->
<g id="node2" class="node">
<title>products</title>
<path fill="lightblue" stroke="black" d="M1109.62,-202.5C1109.62,-202.5 1077.12,-202.5 1077.12,-202.5 1071.12,-202.5 1065.12,-196.5 1065.12,-190.5 1065.12,-190.5 1065.12,-178.5 1065.12,-178.5 1065.12,-172.5 1071.12,-166.5 1077.12,-166.5 1077.12,-166.5 1109.62,-166.5 1109.62,-166.5 1115.62,-166.5 1121.62,-172.5 1121.62,-178.5 1121.62,-178.5 1121.62,-190.5 1121.62,-190.5 1121.62,-196.5 1115.62,-202.5 1109.62,-202.5"/>
<text text-anchor="middle" x="1093.37" y="-180.22" font-family="Times,serif" font-size="12.00">products</text>
</g>
<!-- order_items&#45;&#45;products -->
<g id="edge1" class="edge">
<title>order_items&#45;&#45;products</title>
<path fill="none" stroke="green" d="M2118.32,-265.57C2027.96,-262.32 1793.69,-252.15 1718.62,-231.75 1707.55,-228.74 1706.48,-223.39 1695.37,-220.5 1584.93,-191.79 1226.04,-186.59 1121.93,-185.69"/>
<text text-anchor="middle" x="1746" y="-222.25" font-family="Times,serif" font-size="10.00">INNER JOIN</text>
</g>
<!-- order_items&#45;&#45;products -->
<g id="edge7" class="edge">
<title>order_items&#45;&#45;products</title>
<path fill="none" stroke="green" d="M2118.32,-267.37C2052.92,-267.59 1910.92,-263.89 1796.62,-231.75 1785.57,-228.64 1784.49,-223.35 1773.37,-220.5 1647.27,-188.16 1234.81,-185.56 1122.08,-185.47"/>
<text text-anchor="middle" x="1824" y="-222.25" font-family="Times,serif" font-size="10.00">INNER JOIN</text>
</g>
<!-- order_items&#45;&#45;products -->
<g id="edge8" class="edge">
<title>order_items&#45;&#45;products</title>
<path fill="none" stroke="green" d="M2118.28,-265.97C2064.25,-263.97 1959.58,-256.88 1874.62,-231.75 1863.61,-228.49 1862.5,-223.32 1851.37,-220.5 1709.47,-184.51 1242.65,-184.63 1122.02,-185.29"/>
<text text-anchor="middle" x="1902" y="-222.25" font-family="Times,serif" font-size="10.00">INNER JOIN</text>
</g>
<!-- order_items&#45;&#45;products -->
<g id="edge15" class="edge">
<title>order_items&#45;&#45;products</title>
<path fill="none" stroke="black" d="M2118.3,-263.55C2077.36,-259.23 2008.97,-249.87 1952.62,-231.75 1941.69,-228.23 1940.51,-223.3 1929.37,-220.5 1849.77,-200.49 1259.17,-188.53 1121.84,-186.01"/>
<text text-anchor="middle" x="1968" y="-222.25" font-family="Times,serif" font-size="10.00">INNER</text>
</g>
<!-- order_items&#45;&#45;products -->
<g id="edge20" class="edge">
<title>order_items&#45;&#45;products</title>
<path fill="none" stroke="blue" d="M2118.37,-260.63C2087.93,-254.89 2043.45,-245.19 2006.12,-231.75 1995.51,-227.93 1994.3,-223.28 1983.37,-220.5 1940.71,-209.64 1269.55,-190.4 1121.94,-186.29"/>
<text text-anchor="middle" x="2029.75" y="-222.25" font-family="Times,serif" font-size="10.00">LEFT JOIN</text>
</g>
<!-- order_items&#45;&#45;products -->
<g id="edge22" class="edge">
<title>order_items&#45;&#45;products</title>
<path fill="none" stroke="green" d="M2118.18,-266.86C1839.24,-267.63 41.29,-271.05 2.62,-231.75 -0.88,-228.19 -0.86,-224.09 2.62,-220.5 40.64,-181.24 896.32,-184.32 1064.74,-185.31"/>
<text text-anchor="middle" x="30" y="-222.25" font-family="Times,serif" font-size="10.00">INNER JOIN</text>
</g>
<!-- order_items&#45;&#45;products -->
<g id="edge23" class="edge">
<title>order_items&#45;&#45;products</title>
<path fill="none" stroke="green" d="M2118.2,-266.84C1845.16,-267.42 117.82,-269.58 80.62,-231.75 77.12,-228.18 77.15,-224.1 80.62,-220.5 115.73,-184.16 903.53,-184.86 1064.72,-185.38"/>
<text text-anchor="middle" x="108" y="-222.25" font-family="Times,serif" font-size="10.00">INNER JOIN</text>
</g>
<!-- order_items&#45;&#45;products -->
<g id="edge39" class="edge">
<title>order_items&#45;&#45;products</title>
<path fill="none" stroke="green" d="M2118.29,-266.81C1851.5,-267.2 194.35,-268.11 158.62,-231.75 155.12,-228.18 155.15,-224.1 158.62,-220.5 190.82,-187.07 911.04,-185.44 1064.7,-185.47"/>
<text text-anchor="middle" x="186" y="-222.25" font-family="Times,serif" font-size="10.00">INNER JOIN</text>
</g>
<!-- order_items&#45;&#45;products -->
<g id="edge42" class="edge">
<title>order_items&#45;&#45;products</title>
<path fill="none" stroke="green" d="M2118.47,-266.79C1858.27,-266.97 270.89,-266.65 236.62,-231.75 233.12,-228.18 233.16,-224.11 236.62,-220.5 265.94,-189.96 919.76,-186.06 1064.97,-185.57"/>
<text text-anchor="middle" x="264" y="-222.25" font-family="Times,serif" font-size="10.00">INNER JOIN</text>
</g>
<!-- order_items&#45;&#45;products -->
<g id="edge45" class="edge">
<title>order_items&#45;&#45;products</title>
<path fill="none" stroke="green" d="M2118.32,-266.76C1863.84,-266.73 347.41,-265.17 314.62,-231.75 311.12,-228.18 311.17,-224.11 314.62,-220.5 341.04,-192.87 927.74,-186.75 1064.88,-185.69"/>
<text text-anchor="middle" x="342" y="-222.25" font-family="Times,serif" font-size="10.00">INNER JOIN</text>
</g>
<!-- order_items&#45;&#45;products -->
<g id="edge50" class="edge">
<title>order_items&#45;&#45;products</title>
<path fill="none" stroke="green" d="M2118.27,-266.73C1869.97,-266.48 423.94,-263.7 392.62,-231.75 389.12,-228.18 389.18,-224.12 392.62,-220.5 416.16,-195.76 936.17,-187.51 1064.8,-185.84"/>
<text text-anchor="middle" x="420" y="-222.25" font-family="Times,serif" font-size="10.00">INNER JOIN</text>
</g>
<!-- order_items&#45;&#45;products -->
<g id="edge54" class="edge">
<title>order_items&#45;&#45;products</title>
<path fill="none" stroke="green" d="M2118.33,-266.69C1876.66,-266.23 500.48,-262.23 470.62,-231.75 467.12,-228.18 467.19,-224.13 470.62,-220.5 491.29,-198.64 945.44,-188.36 1064.83,-186.02"/>
<text text-anchor="middle" x="498" y="-222.25" font-family="Times,serif" font-size="10.00">INNER JOIN</text>
</g>
<!-- order_items&#45;&#45;products -->
<g id="edge56" class="edge">
<title>order_items&#45;&#45;products</title>
<path fill="none" stroke="green" d="M2118.13,-266.65C1882.5,-265.95 577.01,-260.76 548.62,-231.75 545.13,-228.18 545.2,-224.15 548.62,-220.5 584.12,-182.65 957.55,-183.95 1064.75,-185.11"/>
<text text-anchor="middle" x="576" y="-222.25" font-family="Times,serif" font-size="10.00">INNER JOIN</text>
</g>
<!-- order_items&#45;&#45;products -->
<g id="edge60" class="edge">
<title>order_items&#45;&#45;products</title>
<path fill="none" stroke="green" d="M2118.43,-266.61C1890.38,-265.67 653.55,-259.31 626.62,-231.75 623.13,-228.17 623.22,-224.17 626.62,-220.5 656.47,-188.33 968.24,-185.53 1064.93,-185.44"/>
<text text-anchor="middle" x="654" y="-222.25" font-family="Times,serif" font-size="10.00">INNER JOIN</text>
</g>
<!-- order_items&#45;&#45;products -->
<g id="edge72" class="edge">
<title>order_items&#45;&#45;products</title>
<path fill="none" stroke="green" d="M2118.14,-266.57C1896.29,-265.37 730.08,-257.83 704.62,-231.75 701.13,-228.17 701.25,-224.19 704.62,-220.5 728.82,-194.02 978.96,-187.4 1064.71,-185.9"/>
<text text-anchor="middle" x="732" y="-222.25" font-family="Times,serif" font-size="10.00">INNER JOIN</text>
</g>
<!-- order_items&#45;&#45;products -->
<g id="edge74" class="edge">
<title>order_items&#45;&#45;products</title>
<path fill="none" stroke="green" d="M2118.37,-266.52C1904.22,-265.06 806.63,-256.38 782.62,-231.75 742.36,-190.45 980.73,-185.82 1064.82,-185.46"/>
<text text-anchor="middle" x="810" y="-222.25" font-family="Times,serif" font-size="10.00">INNER JOIN</text>
</g>
<!-- order_items&#45;&#45;products -->
<g id="edge80" class="edge">
<title>order_items&#45;&#45;products</title>
<path fill="none" stroke="green" d="M2118.42,-266.46C1911.73,-264.72 883.18,-254.92 860.62,-231.75 831.31,-201.64 996.51,-190.15 1064.84,-186.72"/>
<text text-anchor="middle" x="888" y="-222.25" font-family="Times,serif" font-size="10.00">INNER JOIN</text>
</g>
<!-- order_items&#45;&#45;products -->
<g id="edge86" class="edge">
<title>order_items&#45;&#45;products</title>
<path fill="none" stroke="green" d="M2118.34,-266.4C1919.03,-264.36 959.72,-253.46 938.62,-231.75 900.52,-192.53 1010.25,-186.23 1064.71,-185.45"/>
<text text-anchor="middle" x="966" y="-222.25" font-family="Times,serif" font-size="10.00">INNER JOIN</text>
</g>
<!-- order_items&#45;&#45;products -->
<g id="edge95" class="edge">
<title>order_items&#45;&#45;products</title>
<path fill="none" stroke="green" d="M2118.17,-266.32C1926.31,-263.97 1036.26,-252 1016.62,-231.75 998.7,-213.27 1036.03,-199.35 1064.66,-191.82"/>
<text text-anchor="middle" x="1044" y="-222.25" font-family="Times,serif" font-size="10.00">INNER JOIN</text>
</g>
<!-- order_items&#45;&#45;products -->
<g id="edge97" class="edge">
<title>order_items&#45;&#45;products</title>
<path fill="none" stroke="green" d="M2118.37,-266.93C1937.1,-267.66 1131.47,-268.82 1094.62,-231.75 1087.26,-224.34 1087.05,-212.53 1088.63,-202.7"/>
<text text-anchor="middle" x="1122" y="-222.25" font-family="Times,serif" font-size="10.00">INNER JOIN</text>
</g>
<!-- order_items&#45;&#45;products -->
<g id="edge100" class="edge">
<title>order_items&#45;&#45;products</title>
<path fill="none" stroke="green" d="M2118.17,-266.5C1951.79,-265.24 1264.67,-258.41 1172.62,-231.75 1167.04,-230.13 1142.05,-215.32 1121.6,-202.88"/>
<text text-anchor="middle" x="1200" y="-222.25" font-family="Times,serif" font-size="10.00">INNER JOIN</text>
</g>
<!-- order_items&#45;&#45;products -->
<g id="edge106" class="edge">
<title>order_items&#45;&#45;products</title>
<path fill="none" stroke="green" d="M2118.22,-266.22C1960.38,-263.81 1335.7,-252.99 1250.62,-231.75 1239.49,-228.97 1238.14,-224.47 1227.37,-220.5 1191.95,-207.45 1149.58,-197.24 1122.1,-191.3"/>
<text text-anchor="middle" x="1278" y="-222.25" font-family="Times,serif" font-size="10.00">INNER JOIN</text>
</g>
<!-- order_items&#45;&#45;products -->
<g id="edge108" class="edge">
<title>order_items&#45;&#45;products</title>
<path fill="none" stroke="green" d="M2118.59,-267.16C1980.37,-268.44 1481.51,-270.22 1328.62,-231.75 1317.49,-228.95 1316.32,-223.97 1305.37,-220.5 1241.72,-200.31 1163.44,-191.24 1122.1,-187.62"/>
<text text-anchor="middle" x="1356" y="-222.25" font-family="Times,serif" font-size="10.00">INNER JOIN</text>
</g>
<!-- order_items&#45;&#45;products -->
<g id="edge110" class="edge">
<title>order_items&#45;&#45;products</title>
<path fill="none" stroke="green" d="M2118.47,-266.97C1988.6,-267.48 1543.76,-266.58 1406.62,-231.75 1395.5,-228.92 1394.39,-223.73 1383.37,-220.5 1290.43,-193.23 1174.74,-187.17 1121.99,-185.85"/>
<text text-anchor="middle" x="1434" y="-222.25" font-family="Times,serif" font-size="10.00">INNER JOIN</text>
</g>
<!-- order_items&#45;&#45;products -->
<g id="edge113" class="edge">
<title>order_items&#45;&#45;products</title>
<path fill="none" stroke="green" d="M2118.2,-267.11C1996.32,-267.99 1601.54,-267.89 1480.62,-231.75 1471.13,-228.91 1470.8,-223.54 1461.37,-220.5 1398.23,-200.14 1197.05,-189.84 1121.98,-186.63"/>
<text text-anchor="middle" x="1508" y="-222.25" font-family="Times,serif" font-size="10.00">INNER JOIN</text>
</g>
<!-- users -->
<g id="node3" class="node">
<title>users</title>
<path fill="lightblue" stroke="black" d="M2887.37,-202.5C2887.37,-202.5 2857.37,-202.5 2857.37,-202.5 2851.37,-202.5 2845.37,-196.5 2845.37,-190.5 2845.37,-190.5 2845.37,-178.5 2845.37,-178.5 2845.37,-172.5 2851.37,-166.5 2857.37,-166.5 2857.37,-166.5 2887.37,-166.5 2887.37,-166.5 2893.37,-166.5 2899.37,-172.5 2899.37,-178.5 2899.37,-178.5 2899.37,-190.5 2899.37,-190.5 2899.37,-196.5 2893.37,-202.5 2887.37,-202.5"/>
<text text-anchor="middle" x="2872.37" y="-180.22" font-family="Times,serif" font-size="12.00">users</text>
</g>
<!-- order_items&#45;&#45;users -->
<g id="edge13" class="edge">
<title>order_items&#45;&#45;users</title>
<path fill="none" stroke="green" d="M2190.23,-266.56C2304.83,-265.66 2661.2,-260.57 2772.37,-231.75 2783.49,-228.87 2785.23,-225.38 2795.62,-220.5 2811.93,-212.84 2830.28,-204.46 2844.95,-197.82"/>
<text text-anchor="middle" x="2823" y="-222.25" font-family="Times,serif" font-size="10.00">INNER JOIN</text>
</g>
<!-- order_items&#45;&#45;users -->
<g id="edge41" class="edge">
<title>order_items&#45;&#45;users</title>
<path fill="none" stroke="green" d="M2190.33,-267.07C2325.1,-267.99 2795.28,-268.52 2850.37,-231.75 2860.14,-225.23 2865.68,-213.14 2868.76,-202.96"/>
<text text-anchor="middle" x="2888.08" y="-222.25" font-family="Times,serif" font-size="10.00">INNER JOIN</text>
</g>
<!-- order_items&#45;&#45;users -->
<g id="edge44" class="edge">
<title>order_items&#45;&#45;users</title>
<path fill="none" stroke="green" d="M2190.42,-266.47C2338.57,-265.14 2893.92,-258.4 2919.37,-231.75 2930.36,-220.24 2915.56,-207.6 2899.74,-198.44"/>
<text text-anchor="middle" x="2950.53" y="-222.25" font-family="Times,serif" font-size="10.00">INNER JOIN</text>
</g>
<!-- orders -->
<g id="node4" class="node">
<title>orders</title>
<path fill="lightblue" stroke="black" d="M3117.37,-36C3117.37,-36 3087.37,-36 3087.37,-36 3081.37,-36 3075.37,-30 3075.37,-24 3075.37,-24 3075.37,-12 3075.37,-12 3075.37,-6 3081.37,0 3087.37,0 3087.37,0 3117.37,0 3117.37,0 3123.37,0 3129.37,-6 3129.37,-12 3129.37,-12 3129.37,-24 3129.37,-24 3129.37,-30 3123.37,-36 3117.37,-36"/>
<text text-anchor="middle" x="3102.37" y="-13.72" font-family="Times,serif" font-size="12.00">orders</text>
</g>
<!-- order_items&#45;&#45;orders -->
<g id="edge14" class="edge">
<title>order_items&#45;&#45;orders</title>
<path fill="none" stroke="black" d="M2190.33,-266.53C2410.88,-265.1 3576.53,-256.44 3733.37,-231.75 3778.27,-224.68 3804.21,-238.95 3831.37,-202.5 3840.93,-189.67 3838.65,-180.75 3831.37,-166.5 3821.16,-146.49 3684.94,-60.28 3663.37,-54 3561.48,-24.34 3227.78,-19.81 3129.71,-19.12"/>
<text text-anchor="middle" x="3827.42" y="-139" font-family="Times,serif" font-size="10.00">INNER</text>
</g>
<!-- order_items&#45;&#45;orders -->
<g id="edge21" class="edge">
<title>order_items&#45;&#45;orders</title>
<path fill="none" stroke="green" d="M2190.52,-266.89C2416.21,-267.65 3627.39,-269.93 3787.37,-231.75 3816.62,-224.77 3832.36,-227.94 3848.37,-202.5 3900.06,-120.39 3782.94,-75.67 3688.37,-54 3579.96,-29.16 3230.48,-21.24 3129.77,-19.44"/>
<text text-anchor="middle" x="3886.09" y="-139" font-family="Times,serif" font-size="10.00">INNER JOIN</text>
</g>
<!-- order_items&#45;&#45;orders -->
<g id="edge31" class="edge">
<title>order_items&#45;&#45;orders</title>
<path fill="none" stroke="green" d="M2190.41,-266.55C2426.3,-265.21 3742.7,-256.59 3823.37,-231.75 3876.71,-215.33 3897.27,-200.56 3917.37,-148.5 3951.92,-59.03 3817.93,-70.02 3723.37,-54 3606.53,-34.21 3233.51,-22.63 3129.52,-19.72"/>
<text text-anchor="middle" x="3948" y="-139" font-family="Times,serif" font-size="10.00">INNER JOIN</text>
</g>
<!-- order_items&#45;&#45;orders -->
<g id="edge38" class="edge">
<title>order_items&#45;&#45;orders</title>
<path fill="none" stroke="green" d="M2190.27,-266.47C2428.1,-264.55 3769.97,-252.81 3853.37,-231.75 3918.45,-215.32 3949.97,-208.84 3979.37,-148.5 4028.1,-48.49 3821.04,-58.77 3784.37,-54 3531.6,-21.12 3222.37,-18.78 3129.8,-18.88"/>
<text text-anchor="middle" x="4011.26" y="-139" font-family="Times,serif" font-size="10.00">INNER JOIN</text>
</g>
<!-- order_items&#45;&#45;orders -->
<g id="edge51" class="edge">
<title>order_items&#45;&#45;orders</title>
<path fill="none" stroke="green" d="M2190.42,-266.74C2423.77,-266.61 3716.24,-264.39 3888.37,-231.75 3964.82,-217.26 4006.9,-217.75 4042.37,-148.5 4091.17,-53.24 3888.16,-57.53 3862.37,-54 3716.46,-34 3248.06,-22.29 3129.73,-19.6"/>
<text text-anchor="middle" x="4074.28" y="-139" font-family="Times,serif" font-size="10.00">INNER JOIN</text>
</g>
<!-- order_items&#45;&#45;orders -->
<g id="edge53" class="edge">
<title>order_items&#45;&#45;orders</title>
<path fill="none" stroke="green" d="M2190.53,-266.63C2427.43,-265.77 3753.82,-259.73 3931.37,-231.75 4016.06,-218.41 4065.82,-224.56 4105.37,-148.5 4152.62,-57.66 3949.95,-56.63 3931.37,-54 3771.27,-31.33 3254.43,-21.51 3129.67,-19.43"/>
<text text-anchor="middle" x="4137.11" y="-139" font-family="Times,serif" font-size="10.00">INNER JOIN</text>
</g>
<!-- order_items&#45;&#45;orders -->
<g id="edge55" class="edge">
<title>order_items&#45;&#45;orders</title>
<path fill="none" stroke="green" d="M2190.41,-266.6C2430.96,-265.5 3799.97,-258.16 3983.37,-231.75 4072.62,-218.9 4126.53,-228.37 4168.37,-148.5 4214.79,-59.91 4010.88,-56.34 3994.37,-54 3821.18,-29.4 3259.79,-20.97 3129.54,-19.32"/>
<text text-anchor="middle" x="4200.02" y="-139" font-family="Times,serif" font-size="10.00">INNER JOIN</text>
</g>
<!-- order_items&#45;&#45;orders -->
<g id="edge58" class="edge">
<title>order_items&#45;&#45;orders</title>
<path fill="none" stroke="green" d="M2190.36,-266.6C2435.16,-265.48 3851.69,-257.9 4041.37,-231.75 4132.7,-219.16 4188.58,-230.16 4231.37,-148.5 4277.51,-60.44 4071.6,-56.41 4054.37,-54 3868.67,-28.04 3265.06,-20.61 3129.54,-19.25"/>
<text text-anchor="middle" x="4262.98" y="-139" font-family="Times,serif" font-size="10.00">INNER JOIN</text>
</g>
<!-- order_items&#45;&#45;orders -->
<g id="edge64" class="edge">
<title>order_items&#45;&#45;orders</title>
<path fill="none" stroke="green" d="M2190.31,-266.6C2439.53,-265.53 3906.15,-258.11 4102.37,-231.75 4194.55,-219.37 4251.46,-231.02 4294.37,-148.5 4340.78,-59.28 4134.42,-56.6 4115.37,-54 3917.05,-26.89 3271.21,-20.32 3129.87,-19.2"/>
<text text-anchor="middle" x="4326.01" y="-139" font-family="Times,serif" font-size="10.00">INNER JOIN</text>
</g>
<!-- order_items&#45;&#45;orders -->
<g id="edge69" class="edge">
<title>order_items&#45;&#45;orders</title>
<path fill="none" stroke="green" d="M2190.23,-266.62C2443.75,-265.65 3961.55,-258.72 4164.37,-231.75 4256.98,-219.44 4314.27,-231.38 4357.37,-148.5 4403.78,-59.27 4197.43,-56.59 4178.37,-54 3966.77,-25.29 3275.67,-19.95 3129.63,-19.13"/>
<text text-anchor="middle" x="4389.01" y="-139" font-family="Times,serif" font-size="10.00">INNER JOIN</text>
</g>
<!-- order_items&#45;&#45;orders -->
<g id="edge107" class="edge">
<title>order_items&#45;&#45;orders</title>
<path fill="none" stroke="green" d="M2190.52,-266.64C2449.47,-265.79 4017.97,-259.54 4227.37,-231.75 4319.98,-219.46 4377.27,-231.38 4420.37,-148.5 4466.79,-59.26 4260.44,-56.57 4241.37,-54 4016.63,-23.71 3281,-19.6 3129.72,-19.07"/>
<text text-anchor="middle" x="4452.01" y="-139" font-family="Times,serif" font-size="10.00">INNER JOIN</text>
</g>
<!-- inventory_items -->
<g id="node6" class="node">
<title>inventory_items</title>
<path fill="lightblue" stroke="black" d="M1489.25,-36C1489.25,-36 1421.5,-36 1421.5,-36 1415.5,-36 1409.5,-30 1409.5,-24 1409.5,-24 1409.5,-12 1409.5,-12 1409.5,-6 1415.5,0 1421.5,0 1421.5,0 1489.25,0 1489.25,0 1495.25,0 1501.25,-6 1501.25,-12 1501.25,-12 1501.25,-24 1501.25,-24 1501.25,-30 1495.25,-36 1489.25,-36"/>
<text text-anchor="middle" x="1455.37" y="-13.72" font-family="Times,serif" font-size="12.00">inventory_items</text>
</g>
<!-- order_items&#45;&#45;inventory_items -->
<g id="edge27" class="edge">
<title>order_items&#45;&#45;inventory_items</title>
<path fill="none" stroke="black" d="M2132.12,-249.4C2117.65,-239.11 2097.9,-226.88 2078.37,-220.5 1988.48,-191.14 1952.95,-240.54 1866.37,-202.5 1833.9,-188.23 1830.9,-175.26 1807.62,-148.5 1774.13,-109.99 1786.05,-80.41 1742.37,-54 1702.91,-30.13 1572.24,-22.5 1501.62,-20.09"/>
<text text-anchor="middle" x="1823" y="-139" font-family="Times,serif" font-size="10.00">INNER</text>
</g>
<!-- order_items&#45;&#45;inventory_items -->
<g id="edge36" class="edge">
<title>order_items&#45;&#45;inventory_items</title>
<path fill="none" stroke="green" d="M2140.17,-249.32C2130.84,-239.15 2117.72,-227.05 2103.37,-220.5 2042.7,-192.79 2017.61,-223.72 1954.37,-202.5 1909.15,-187.33 1899.62,-177.33 1861.62,-148.5 1813.61,-112.07 1818.85,-79.78 1764.37,-54 1718.93,-32.5 1576.05,-23.76 1501.57,-20.59"/>
<text text-anchor="middle" x="1889" y="-139" font-family="Times,serif" font-size="10.00">INNER JOIN</text>
</g>
<!-- order_items&#45;&#45;inventory_items -->
<g id="edge89" class="edge">
<title>order_items&#45;&#45;inventory_items</title>
<path fill="none" stroke="green" d="M2147.87,-249.39C2143.3,-239.5 2136.24,-227.68 2126.37,-220.5 2098.31,-200.06 2083.06,-214.18 2050.37,-202.5 1998.8,-184.08 1987.52,-175.04 1939.62,-148.5 1870.29,-110.08 1863.32,-79.8 1788.37,-54 1736.5,-36.14 1580.09,-25.59 1501.5,-21.28"/>
<text text-anchor="middle" x="1967" y="-139" font-family="Times,serif" font-size="10.00">INNER JOIN</text>
</g>
<!-- events -->
<g id="node7" class="node">
<title>events</title>
<path fill="lightblue" stroke="black" d="M3630.37,-119.25C3630.37,-119.25 3600.37,-119.25 3600.37,-119.25 3594.37,-119.25 3588.37,-113.25 3588.37,-107.25 3588.37,-107.25 3588.37,-95.25 3588.37,-95.25 3588.37,-89.25 3594.37,-83.25 3600.37,-83.25 3600.37,-83.25 3630.37,-83.25 3630.37,-83.25 3636.37,-83.25 3642.37,-89.25 3642.37,-95.25 3642.37,-95.25 3642.37,-107.25 3642.37,-107.25 3642.37,-113.25 3636.37,-119.25 3630.37,-119.25"/>
<text text-anchor="middle" x="3615.37" y="-96.97" font-family="Times,serif" font-size="12.00">events</text>
</g>
<!-- order_items&#45;&#45;events -->
<g id="edge77" class="edge">
<title>order_items&#45;&#45;events</title>
<path fill="none" stroke="green" d="M2190.38,-266.5C2416.25,-264.83 3630.7,-254.81 3705.37,-231.75 3728.16,-224.71 3736.27,-221.74 3750.37,-202.5 3767.97,-178.5 3783.87,-160.56 3765.37,-137.25 3750.33,-118.29 3681.57,-108.65 3642.58,-104.62"/>
<text text-anchor="middle" x="3799.7" y="-180.62" font-family="Times,serif" font-size="10.00">INNER JOIN</text>
</g>
<!-- order_items&#45;&#45;events -->
<g id="edge82" class="edge">
<title>order_items&#45;&#45;events</title>
<path fill="none" stroke="green" d="M2190.42,-266.94C2305.96,-267.19 2677.37,-265.14 2982.37,-231.75 3147.17,-213.71 3185.02,-186.17 3349.62,-166.5 3381.65,-162.67 3617.28,-172.01 3639.37,-148.5 3647.18,-140.19 3641.49,-128.86 3633.69,-119.49"/>
<text text-anchor="middle" x="3377" y="-180.62" font-family="Times,serif" font-size="10.00">INNER JOIN</text>
</g>
<!-- order_items&#45;&#45;events -->
<g id="edge93" class="edge">
<title>order_items&#45;&#45;events</title>
<path fill="none" stroke="green" d="M2190.56,-266.92C2384.75,-267.59 3298.38,-267.25 3404.37,-202.5 3420.42,-192.69 3410.57,-176.3 3426.62,-166.5 3470.15,-139.94 3620.76,-185.94 3655.37,-148.5 3664.45,-138.68 3654.9,-127.32 3642.87,-118.32"/>
<text text-anchor="middle" x="3454" y="-180.62" font-family="Times,serif" font-size="10.00">INNER JOIN</text>
</g>
<!-- products&#45;&#45;order_items -->
<g id="edge76" class="edge">
<title>products&#45;&#45;order_items</title>
<path fill="none" stroke="green" d="M1121.93,-186.36C1207.39,-189.15 1460.09,-199.03 1539.37,-220.5 1550.45,-223.5 1551.51,-228.86 1562.62,-231.75 1668.56,-259.35 2007.11,-265.25 2118.48,-266.45"/>
<text text-anchor="middle" x="1590" y="-222.25" font-family="Times,serif" font-size="10.00">INNER JOIN</text>
</g>
<!-- products&#45;&#45;order_items -->
<g id="edge81" class="edge">
<title>products&#45;&#45;order_items</title>
<path fill="none" stroke="green" d="M1121.85,-185.69C1217.05,-186.59 1523.56,-191.71 1617.37,-220.5 1626.85,-223.41 1627.15,-228.84 1636.62,-231.75 1726.83,-259.48 2016.14,-265.26 2118.26,-266.45"/>
<text text-anchor="middle" x="1664" y="-222.25" font-family="Times,serif" font-size="10.00">INNER JOIN</text>
</g>
<!-- products&#45;&#45;products -->
<g id="edge83" class="edge">
<title>products&#45;&#45;products</title>
<path fill="none" stroke="blue" d="M1121.83,-188.4C1131.67,-188.44 1139.62,-187.14 1139.62,-184.5 1139.62,-181.86 1131.67,-180.56 1121.83,-180.6"/>
<text text-anchor="middle" x="1163.25" y="-180.62" font-family="Times,serif" font-size="10.00">LEFT JOIN</text>
</g>
<!-- products&#45;&#45;products -->
<g id="edge84" class="edge">
<title>products&#45;&#45;products</title>
<path fill="none" stroke="blue" d="M1121.68,-190.92C1150.44,-194.04 1186.87,-191.9 1186.87,-184.5 1186.87,-177.1 1150.44,-174.96 1121.68,-178.08"/>
<text text-anchor="middle" x="1210.5" y="-180.62" font-family="Times,serif" font-size="10.00">LEFT JOIN</text>
</g>
<!-- distribution_centers -->
<g id="node5" class="node">
<title>distribution_centers</title>
<path fill="lightblue" stroke="black" d="M1380.5,-119.25C1380.5,-119.25 1296.25,-119.25 1296.25,-119.25 1290.25,-119.25 1284.25,-113.25 1284.25,-107.25 1284.25,-107.25 1284.25,-95.25 1284.25,-95.25 1284.25,-89.25 1290.25,-83.25 1296.25,-83.25 1296.25,-83.25 1380.5,-83.25 1380.5,-83.25 1386.5,-83.25 1392.5,-89.25 1392.5,-95.25 1392.5,-95.25 1392.5,-107.25 1392.5,-107.25 1392.5,-113.25 1386.5,-119.25 1380.5,-119.25"/>
<text text-anchor="middle" x="1338.37" y="-96.97" font-family="Times,serif" font-size="12.00">distribution_centers</text>
</g>
<!-- products&#45;&#45;distribution_centers -->
<g id="edge9" class="edge">
<title>products&#45;&#45;distribution_centers</title>
<path fill="none" stroke="green" d="M1064.94,-183.25C1014.01,-181.88 915.58,-174.5 949.62,-137.25 971.74,-113.05 1182.52,-105.44 1284.13,-103.16"/>
<text text-anchor="middle" x="977" y="-139" font-family="Times,serif" font-size="10.00">INNER JOIN</text>
</g>
<!-- products&#45;&#45;distribution_centers -->
<g id="edge24" class="edge">
<title>products&#45;&#45;distribution_centers</title>
<path fill="none" stroke="green" d="M1064.93,-175.43C1041.06,-167.28 1013.02,-153.59 1027.62,-137.25 1044.35,-118.53 1199.19,-108.59 1283.78,-104.51"/>
<text text-anchor="middle" x="1055" y="-139" font-family="Times,serif" font-size="10.00">INNER JOIN</text>
</g>
<!-- products&#45;&#45;distribution_centers -->
<g id="edge26" class="edge">
<title>products&#45;&#45;distribution_centers</title>
<path fill="none" stroke="green" d="M1093.51,-166.15C1094.55,-156.27 1097.58,-144.46 1105.62,-137.25 1131.19,-114.35 1223.44,-106.43 1283.84,-103.69"/>
<text text-anchor="middle" x="1133" y="-139" font-family="Times,serif" font-size="10.00">INNER JOIN</text>
</g>
<!-- products&#45;&#45;distribution_centers -->
<g id="edge43" class="edge">
<title>products&#45;&#45;distribution_centers</title>
<path fill="none" stroke="green" d="M1121.97,-168.63C1147.17,-155.56 1180.37,-138.43 1183.62,-137.25 1216.12,-125.46 1253.95,-116.82 1284.07,-111.07"/>
<text text-anchor="middle" x="1211" y="-139" font-family="Times,serif" font-size="10.00">INNER JOIN</text>
</g>
<!-- products&#45;&#45;distribution_centers -->
<g id="edge96" class="edge">
<title>products&#45;&#45;distribution_centers</title>
<path fill="none" stroke="green" d="M1121.96,-178.48C1151.59,-172.84 1199,-162.6 1238.37,-148.5 1249.18,-144.63 1251.23,-142.13 1261.62,-137.25 1273.95,-131.46 1287.45,-125.26 1299.64,-119.7"/>
<text text-anchor="middle" x="1289" y="-139" font-family="Times,serif" font-size="10.00">INNER JOIN</text>
</g>
<!-- products&#45;&#45;distribution_centers -->
<g id="edge98" class="edge">
<title>products&#45;&#45;distribution_centers</title>
<path fill="none" stroke="green" d="M1121.74,-182.29C1174.71,-179.53 1286.07,-171.12 1316.37,-148.5 1325.78,-141.48 1331.33,-129.4 1334.51,-119.35"/>
<text text-anchor="middle" x="1353.8" y="-139" font-family="Times,serif" font-size="10.00">INNER JOIN</text>
</g>
<!-- products&#45;&#45;distribution_centers -->
<g id="edge101" class="edge">
<title>products&#45;&#45;distribution_centers</title>
<path fill="none" stroke="green" d="M1121.97,-182.19C1192.07,-178.69 1368.05,-168.03 1385.37,-148.5 1394.19,-138.57 1385.36,-128.14 1373.08,-119.71"/>
<text text-anchor="middle" x="1416.3" y="-139" font-family="Times,serif" font-size="10.00">INNER JOIN</text>
</g>
<!-- products&#45;&#45;distribution_centers -->
<g id="edge111" class="edge">
<title>products&#45;&#45;distribution_centers</title>
<path fill="none" stroke="green" d="M1122.02,-182.83C1202.41,-180.65 1425.66,-172.47 1447.37,-148.5 1467.46,-126.33 1429.5,-114.42 1392.99,-108.27"/>
<text text-anchor="middle" x="1480.28" y="-139" font-family="Times,serif" font-size="10.00">INNER JOIN</text>
</g>
<!-- products&#45;&#45;distribution_centers -->
<g id="edge114" class="edge">
<title>products&#45;&#45;distribution_centers</title>
<path fill="none" stroke="green" d="M1121.93,-183.29C1211.9,-182.34 1485.06,-177.11 1511.37,-148.5 1514.76,-144.82 1514.54,-141.12 1511.37,-137.25 1496.53,-119.1 1437.64,-110.15 1392.65,-105.88"/>
<text text-anchor="middle" x="1541.2" y="-139" font-family="Times,serif" font-size="10.00">INNER JOIN</text>
</g>
<!-- products&#45;&#45;distribution_centers -->
<g id="edge115" class="edge">
<title>products&#45;&#45;distribution_centers</title>
<path fill="none" stroke="green" d="M1121.87,-183.62C1220.3,-183.73 1541.65,-181.55 1572.37,-148.5 1597.96,-120.98 1469.64,-109.23 1392.79,-104.73"/>
<text text-anchor="middle" x="1603.06" y="-139" font-family="Times,serif" font-size="10.00">INNER JOIN</text>
</g>
<!-- users&#45;&#45;order_items -->
<g id="edge46" class="edge">
<title>users&#45;&#45;order_items</title>
<path fill="none" stroke="blue" d="M2844.88,-185.66C2791.94,-186.65 2672.62,-192.14 2577.12,-220.5 2566.31,-223.71 2565.23,-228.71 2554.37,-231.75 2486.41,-250.8 2275.68,-261.61 2190.58,-265.3"/>
<text text-anchor="middle" x="2600.75" y="-222.25" font-family="Times,serif" font-size="10.00">LEFT JOIN</text>
</g>
<!-- users&#45;&#45;order_items -->
<g id="edge49" class="edge">
<title>users&#45;&#45;order_items</title>
<path fill="none" stroke="green" d="M2845.15,-187.14C2802.28,-190.29 2716.79,-198.91 2647.62,-220.5 2636.66,-223.92 2635.46,-228.77 2624.37,-231.75 2542.59,-253.73 2285.77,-263.05 2190.45,-265.81"/>
<text text-anchor="middle" x="2675" y="-222.25" font-family="Times,serif" font-size="10.00">INNER JOIN</text>
</g>
<!-- users&#45;&#45;order_items -->
<g id="edge65" class="edge">
<title>users&#45;&#45;order_items</title>
<path fill="none" stroke="blue" d="M2845.1,-189.18C2814.2,-193.94 2762.73,-203.69 2721.12,-220.5 2712.11,-224.14 2711.65,-228.86 2702.37,-231.75 2606.35,-261.67 2296.34,-266.05 2190.32,-266.66"/>
<text text-anchor="middle" x="2744.75" y="-222.25" font-family="Times,serif" font-size="10.00">LEFT JOIN</text>
</g>
<!-- users&#45;&#45;orders -->
<g id="edge2" class="edge">
<title>users&#45;&#45;orders</title>
<path fill="none" stroke="blue" d="M2845.1,-177.71C2817.03,-171.5 2772.21,-160.84 2734.37,-148.5 2721.62,-144.34 2719.22,-141.11 2706.37,-137.25 2668.03,-125.74 2643.44,-150.26 2618.12,-119.25 2608,-106.86 2609.87,-96.96 2618.12,-83.25 2632.45,-59.45 2646.7,-61.79 2673.37,-54 2749.32,-31.82 2993.14,-22.39 3075.16,-19.79"/>
<text text-anchor="middle" x="2641.75" y="-97.38" font-family="Times,serif" font-size="10.00">LEFT JOIN</text>
</g>
<!-- users&#45;&#45;orders -->
<g id="edge3" class="edge">
<title>users&#45;&#45;orders</title>
<path fill="none" stroke="blue" d="M2844.99,-176.39C2821.83,-170.05 2787.95,-160.01 2759.37,-148.5 2752.65,-145.79 2704.93,-125.41 2701.12,-119.25 2692.72,-105.63 2692.87,-96.96 2701.12,-83.25 2739.79,-19.03 2990.74,-17.16 3074.9,-18.37"/>
<text text-anchor="middle" x="2724.75" y="-97.38" font-family="Times,serif" font-size="10.00">LEFT JOIN</text>
</g>
<!-- users&#45;&#45;orders -->
<g id="edge16" class="edge">
<title>users&#45;&#45;orders</title>
<path fill="none" stroke="blue" d="M2845.02,-175.58C2831.78,-170.22 2817.11,-161.66 2809.37,-148.5 2799.51,-131.74 2838.13,-103.92 2867.12,-83.25 2931.93,-37.04 3028.42,-24.05 3075.11,-20.41"/>
<text text-anchor="middle" x="2890.75" y="-97.38" font-family="Times,serif" font-size="10.00">LEFT JOIN</text>
</g>
<!-- users&#45;&#45;orders -->
<g id="edge18" class="edge">
<title>users&#45;&#45;orders</title>
<path fill="none" stroke="blue" d="M2845,-166.45C2834.45,-157.76 2826.58,-146.99 2834.37,-137.25 2857.14,-108.79 2882.48,-136.89 2914.37,-119.25 2934.11,-108.34 2932.01,-96.68 2950.12,-83.25 2972.44,-66.7 2979.96,-65.24 3005.37,-54 3028.46,-43.79 3055.54,-34.21 3075.21,-27.66"/>
<text text-anchor="middle" x="2973.75" y="-97.38" font-family="Times,serif" font-size="10.00">LEFT JOIN</text>
</g>
<!-- users&#45;&#45;orders -->
<g id="edge30" class="edge">
<title>users&#45;&#45;orders</title>
<path fill="none" stroke="blue" d="M2860.59,-166.39C2855.58,-156.83 2852.33,-145.27 2859.37,-137.25 2879.78,-114.01 2969.65,-132.96 2997.37,-119.25 3017.59,-109.25 3016.91,-98.92 3033.12,-83.25 3049.87,-67.06 3069.34,-49.07 3083.37,-36.25"/>
<text text-anchor="middle" x="3056.75" y="-97.38" font-family="Times,serif" font-size="10.00">LEFT JOIN</text>
</g>
<!-- users&#45;&#45;orders -->
<g id="edge59" class="edge">
<title>users&#45;&#45;orders</title>
<path fill="none" stroke="blue" d="M2872.22,-166.45C2873.1,-156.41 2876.03,-144.34 2884.37,-137.25 2917.71,-108.93 3047.58,-148.19 3080.37,-119.25 3103.88,-98.5 3105.47,-58.9 3104.16,-36.17"/>
<text text-anchor="middle" x="3123.83" y="-97.38" font-family="Times,serif" font-size="10.00">LEFT JOIN</text>
</g>
<!-- users&#45;&#45;orders -->
<g id="edge63" class="edge">
<title>users&#45;&#45;orders</title>
<path fill="none" stroke="blue" d="M2881.27,-166.38C2887.62,-156.05 2897.18,-143.68 2909.37,-137.25 2957.08,-112.1 3114.68,-158.77 3151.37,-119.25 3174.04,-94.83 3144.13,-57.97 3122.06,-36.41"/>
<text text-anchor="middle" x="3183.08" y="-97.38" font-family="Times,serif" font-size="10.00">LEFT JOIN</text>
</g>
<!-- users&#45;&#45;orders -->
<g id="edge66" class="edge">
<title>users&#45;&#45;orders</title>
<path fill="none" stroke="blue" d="M2844.89,-172.07C2806.16,-154.34 2743.2,-118.57 2771.12,-83.25 2808.77,-35.63 3002.56,-23 3075.01,-19.92"/>
<text text-anchor="middle" x="2794.75" y="-97.38" font-family="Times,serif" font-size="10.00">LEFT JOIN</text>
</g>
<!-- users&#45;&#45;orders -->
<g id="edge67" class="edge">
<title>users&#45;&#45;orders</title>
<path fill="none" stroke="black" d="M2844.89,-180.12C2807.91,-175.18 2740.32,-164.77 2684.37,-148.5 2671.5,-144.75 2669.37,-140.55 2656.37,-137.25 2622.49,-128.66 2523.38,-145.34 2500.12,-119.25 2489.48,-107.31 2493.76,-97.93 2500.12,-83.25 2507.69,-65.8 2513.9,-61.53 2531.37,-54 2581.6,-32.36 2968.06,-22.05 3075.02,-19.59"/>
<text text-anchor="middle" x="2511.75" y="-97.38" font-family="Times,serif" font-size="10.00">LEFT</text>
</g>
<!-- users&#45;&#45;orders -->
<g id="edge79" class="edge">
<title>users&#45;&#45;orders</title>
<path fill="none" stroke="black" d="M2844.9,-179.08C2812.2,-173.48 2756.15,-162.8 2709.37,-148.5 2696.55,-144.58 2694.25,-140.99 2681.37,-137.25 2639.16,-125 2612.23,-153.04 2584.12,-119.25 2573.89,-106.95 2576.34,-97.23 2584.12,-83.25 2596.14,-61.67 2607.88,-61.63 2631.37,-54 2714.72,-26.91 2987.24,-20.66 3074.93,-19.33"/>
<text text-anchor="middle" x="2595.75" y="-97.38" font-family="Times,serif" font-size="10.00">LEFT</text>
</g>
<!-- users&#45;&#45;distribution_centers -->
<g id="edge104" class="edge">
<title>users&#45;&#45;distribution_centers</title>
<path fill="none" stroke="black" d="M2845.13,-182.38C2799.01,-179.89 2703.02,-172.08 2625.62,-148.5 2614.64,-145.15 2613.53,-139.97 2602.37,-137.25 2483.94,-108.37 1619.41,-103.26 1392.69,-102.41"/>
<text text-anchor="middle" x="2641" y="-139" font-family="Times,serif" font-size="10.00">INNER</text>
</g>
<!-- users&#45;&#45;events -->
<g id="edge11" class="edge">
<title>users&#45;&#45;events</title>
<path fill="none" stroke="green" d="M2899.63,-183.37C2953.32,-182.45 3076.05,-177.09 3174.37,-148.5 3185.4,-145.29 3186.5,-140.08 3197.62,-137.25 3360.08,-95.91 3410.79,-155.9 3574.37,-119.25 3578.88,-118.24 3583.53,-116.77 3588.01,-115.11"/>
<text text-anchor="middle" x="3225" y="-139" font-family="Times,serif" font-size="10.00">INNER JOIN</text>
</g>
<!-- users&#45;&#45;events -->
<g id="edge12" class="edge">
<title>users&#45;&#45;events</title>
<path fill="none" stroke="blue" d="M2899.63,-182.29C2975.14,-178.72 3185.83,-167.31 3252.37,-148.5 3263.23,-145.43 3264.22,-140.15 3275.12,-137.25 3403.9,-103.04 3444.54,-149.18 3574.37,-119.25 3578.88,-118.21 3583.52,-116.73 3588,-115.06"/>
<text text-anchor="middle" x="3298.75" y="-139" font-family="Times,serif" font-size="10.00">LEFT JOIN</text>
</g>
<!-- users&#45;&#45;events -->
<g id="edge29" class="edge">
<title>users&#45;&#45;events</title>
<path fill="none" stroke="blue" d="M2899.68,-182.73C2984.42,-180.14 3242,-170.61 3322.37,-148.5 3333.25,-145.51 3334.25,-140.25 3345.12,-137.25 3443.66,-110.11 3475,-143.12 3574.37,-119.25 3578.87,-118.17 3583.51,-116.66 3587.98,-114.99"/>
<text text-anchor="middle" x="3368.75" y="-139" font-family="Times,serif" font-size="10.00">LEFT JOIN</text>
</g>
<!-- users&#45;&#45;events -->
<g id="edge62" class="edge">
<title>users&#45;&#45;events</title>
<path fill="none" stroke="green" d="M2899.57,-183.04C2992.66,-181.24 3297.91,-173.52 3392.37,-148.5 3403.47,-145.56 3404.6,-140.44 3415.62,-137.25 3483.83,-117.51 3505.63,-137.02 3574.37,-119.25 3578.85,-118.09 3583.48,-116.54 3587.95,-114.85"/>
<text text-anchor="middle" x="3443" y="-139" font-family="Times,serif" font-size="10.00">INNER JOIN</text>
</g>
<!-- users&#45;&#45;events -->
<g id="edge68" class="edge">
<title>users&#45;&#45;events</title>
<path fill="none" stroke="black" d="M2899.74,-182.54C3009.52,-178.61 3414.83,-163.21 3470.37,-148.5 3481.28,-145.61 3482.48,-141 3493.12,-137.25 3528.01,-124.96 3539.1,-130.38 3574.37,-119.25 3578.93,-117.81 3583.68,-116.07 3588.27,-114.27"/>
<text text-anchor="middle" x="3504.75" y="-139" font-family="Times,serif" font-size="10.00">LEFT</text>
</g>
<!-- users&#45;&#45;events -->
<g id="edge78" class="edge">
<title>users&#45;&#45;events</title>
<path fill="none" stroke="black" d="M2899.83,-182.38C3018.96,-177.46 3486.5,-157.66 3516.37,-148.5 3525.66,-145.65 3526.48,-141.7 3535.12,-137.25 3544.78,-132.27 3568.69,-121.93 3587.92,-113.78"/>
<text text-anchor="middle" x="3546.75" y="-139" font-family="Times,serif" font-size="10.00">LEFT</text>
</g>
<!-- user_sale -->
<g id="node8" class="node">
<title>user_sale</title>
<path fill="lightblue" stroke="black" d="M3389.12,-119.25C3389.12,-119.25 3353.62,-119.25 3353.62,-119.25 3347.62,-119.25 3341.62,-113.25 3341.62,-107.25 3341.62,-107.25 3341.62,-95.25 3341.62,-95.25 3341.62,-89.25 3347.62,-83.25 3353.62,-83.25 3353.62,-83.25 3389.12,-83.25 3389.12,-83.25 3395.12,-83.25 3401.12,-89.25 3401.12,-95.25 3401.12,-95.25 3401.12,-107.25 3401.12,-107.25 3401.12,-113.25 3395.12,-119.25 3389.12,-119.25"/>
<text text-anchor="middle" x="3371.37" y="-96.97" font-family="Times,serif" font-size="12.00">user_sale</text>
</g>
<!-- users&#45;&#45;user_sale -->
<g id="edge90" class="edge">
<title>users&#45;&#45;user_sale</title>
<path fill="none" stroke="blue" d="M2899.79,-167.15C2921.19,-154.54 2948.25,-138.95 2954.12,-137.25 3113.67,-91.11 3164.89,-153.62 3327.37,-119.25 3332.02,-118.27 3336.82,-116.86 3341.46,-115.26"/>
<text text-anchor="middle" x="2977.75" y="-139" font-family="Times,serif" font-size="10.00">LEFT JOIN</text>
</g>
<!-- user_cost -->
<g id="node9" class="node">
<title>user_cost</title>
<path fill="lightblue" stroke="black" d="M3467.5,-119.25C3467.5,-119.25 3431.25,-119.25 3431.25,-119.25 3425.25,-119.25 3419.25,-113.25 3419.25,-107.25 3419.25,-107.25 3419.25,-95.25 3419.25,-95.25 3419.25,-89.25 3425.25,-83.25 3431.25,-83.25 3431.25,-83.25 3467.5,-83.25 3467.5,-83.25 3473.5,-83.25 3479.5,-89.25 3479.5,-95.25 3479.5,-95.25 3479.5,-107.25 3479.5,-107.25 3479.5,-113.25 3473.5,-119.25 3467.5,-119.25"/>
<text text-anchor="middle" x="3449.37" y="-96.97" font-family="Times,serif" font-size="12.00">user_cost</text>
</g>
<!-- users&#45;&#45;user_cost -->
<g id="edge91" class="edge">
<title>users&#45;&#45;user_cost</title>
<path fill="none" stroke="blue" d="M2899.79,-177.69C2926.24,-171.71 2967.19,-161.45 3001.37,-148.5 3011.92,-144.5 3013.2,-140.07 3024.12,-137.25 3190.51,-94.25 3243,-158.23 3410.37,-119.25 3413.25,-118.58 3416.18,-117.7 3419.08,-116.7"/>
<text text-anchor="middle" x="3047.75" y="-139" font-family="Times,serif" font-size="10.00">LEFT JOIN</text>
</g>
<!-- orders&#45;&#45;order_items -->
<g id="edge5" class="edge">
<title>orders&#45;&#45;order_items</title>
<path fill="none" stroke="green" d="M3075.07,-19.27C2917.09,-20.93 2125.73,-30.41 2080.37,-54 1948.31,-122.68 1994.02,-106.99 2017.62,-148.5 2040.82,-189.3 2066.95,-180.43 2108.37,-202.5 2124.87,-211.29 2135.07,-205.62 2146.37,-220.5 2152.59,-228.67 2154.62,-240.01 2155.09,-249.41"/>
<text text-anchor="middle" x="2045" y="-139" font-family="Times,serif" font-size="10.00">INNER JOIN</text>
</g>
<!-- orders&#45;&#45;order_items -->
<g id="edge6" class="edge">
<title>orders&#45;&#45;order_items</title>
<path fill="none" stroke="green" d="M3074.97,-19.35C2924.11,-21.39 2200.04,-32.26 2158.37,-54 2081.24,-94.25 2077.95,-103.92 2095.62,-148.5 2111.82,-189.35 2147.18,-179.65 2163.37,-220.5 2167.05,-229.78 2165.18,-240.72 2162.21,-249.63"/>
<text text-anchor="middle" x="2123" y="-139" font-family="Times,serif" font-size="10.00">INNER JOIN</text>
</g>
<!-- orders&#45;&#45;order_items -->
<g id="edge17" class="edge">
<title>orders&#45;&#45;order_items</title>
<path fill="none" stroke="blue" d="M3075.12,-19.4C2931.35,-21.57 2266.13,-32.76 2228.37,-54 2189.67,-75.77 2185.95,-94.74 2173.12,-137.25 2160.98,-177.52 2190.83,-191.57 2178.37,-231.75 2176.45,-237.94 2173.02,-244.01 2169.34,-249.32"/>
<text text-anchor="middle" x="2196.75" y="-139" font-family="Times,serif" font-size="10.00">LEFT JOIN</text>
</g>
<!-- orders&#45;&#45;order_items -->
<g id="edge19" class="edge">
<title>orders&#45;&#45;order_items</title>
<path fill="none" stroke="blue" d="M3075.11,-18.73C2942.36,-17.63 2367.18,-15.13 2298.37,-54 2218.48,-99.13 2249.77,-159.38 2193.37,-231.75 2188.45,-238.06 2182.31,-244.17 2176.36,-249.47"/>
<text text-anchor="middle" x="2259.02" y="-139" font-family="Times,serif" font-size="10.00">LEFT JOIN</text>
</g>
<!-- orders&#45;&#45;order_items -->
<g id="edge35" class="edge">
<title>orders&#45;&#45;order_items</title>
<path fill="none" stroke="green" d="M3075.21,-18.84C2947.99,-18.26 2414.57,-18.01 2350.37,-54 2306.13,-78.81 2317.65,-108.56 2286.37,-148.5 2255.67,-187.71 2249.65,-199.89 2211.37,-231.75 2203.7,-238.14 2194.75,-244.18 2186.24,-249.4"/>
<text text-anchor="middle" x="2321.39" y="-139" font-family="Times,serif" font-size="10.00">INNER JOIN</text>
</g>
<!-- orders&#45;&#45;order_items -->
<g id="edge61" class="edge">
<title>orders&#45;&#45;order_items</title>
<path fill="none" stroke="green" d="M3075.17,-19.51C2947.94,-21.97 2416.65,-33.47 2388.37,-54 2352,-80.4 2380.14,-113.16 2352.37,-148.5 2309.82,-202.65 2235.07,-237.41 2190.59,-254.4"/>
<text text-anchor="middle" x="2386.52" y="-139" font-family="Times,serif" font-size="10.00">INNER JOIN</text>
</g>
<!-- orders&#45;&#45;order_items -->
<g id="edge94" class="edge">
<title>orders&#45;&#45;order_items</title>
<path fill="none" stroke="green" d="M3075.26,-19.42C2952.08,-21.44 2450.07,-31.07 2426.37,-54 2396.08,-83.31 2440.67,-112.73 2418.37,-148.5 2368.56,-228.41 2250.09,-254.7 2190.26,-263.05"/>
<text text-anchor="middle" x="2450.57" y="-139" font-family="Times,serif" font-size="10.00">INNER JOIN</text>
</g>
<!-- orders&#45;&#45;order_items -->
<g id="edge112" class="edge">
<title>orders&#45;&#45;order_items</title>
<path fill="none" stroke="green" d="M3075.17,-19.14C2965.14,-19.88 2556.5,-24.62 2507.37,-54 2494.27,-61.83 2494.31,-68.81 2489.37,-83.25 2479.94,-110.85 2497.63,-123.64 2482.37,-148.5 2443.5,-211.83 2408.03,-208.73 2337.37,-231.75 2287.7,-247.93 2227.87,-257.62 2190.47,-262.58"/>
<text text-anchor="middle" x="2514.82" y="-139" font-family="Times,serif" font-size="10.00">INNER JOIN</text>
</g>
<!-- orders&#45;&#45;users -->
<g id="edge4" class="edge">
<title>orders&#45;&#45;users</title>
<path fill="none" stroke="green" d="M3129.65,-22.26C3162.88,-27.95 3216.98,-43.19 3236.37,-83.25 3243.35,-97.65 3247.34,-107.6 3236.37,-119.25 3213.32,-143.72 2965.95,-125.72 2934.37,-137.25 2917.47,-143.42 2901.28,-155.81 2889.68,-166.21"/>
<text text-anchor="middle" x="3270.56" y="-97.38" font-family="Times,serif" font-size="10.00">INNER JOIN</text>
</g>
<!-- orders&#45;&#45;users -->
<g id="edge32" class="edge">
<title>orders&#45;&#45;users</title>
<path fill="none" stroke="green" d="M3129.67,-19.19C3209.86,-20.38 3442.04,-28.57 3488.37,-83.25 3498.72,-95.46 3499.42,-107.68 3488.37,-119.25 3458.49,-150.54 3141.65,-128.06 3099.37,-137.25 3086.27,-140.1 3084.27,-144.82 3071.37,-148.5 3011.33,-165.64 2938.58,-175.87 2899.82,-180.51"/>
<text text-anchor="middle" x="3523.77" y="-97.38" font-family="Times,serif" font-size="10.00">INNER JOIN</text>
</g>
<!-- orders&#45;&#45;orders -->
<g id="edge47" class="edge">
<title>orders&#45;&#45;orders</title>
<path fill="none" stroke="black" d="M3129.61,-21.9C3139.4,-21.98 3147.37,-20.68 3147.37,-18 3147.37,-15.32 3139.4,-14.02 3129.61,-14.1"/>
<text text-anchor="middle" x="3162.75" y="-14.12" font-family="Times,serif" font-size="10.00">INNER</text>
</g>
<!-- orders&#45;&#45;orders -->
<g id="edge48" class="edge">
<title>orders&#45;&#45;orders</title>
<path fill="none" stroke="black" d="M3129.64,-24.75C3152.54,-27.36 3178.12,-25.11 3178.12,-18 3178.12,-10.89 3152.54,-8.64 3129.64,-11.25"/>
<text text-anchor="middle" x="3193.5" y="-14.12" font-family="Times,serif" font-size="10.00">INNER</text>
</g>
<!-- distribution_centers&#45;&#45;products -->
<g id="edge75" class="edge">
<title>distribution_centers&#45;&#45;products</title>
<path fill="none" stroke="green" d="M1284.01,-102.4C1169.4,-103.28 911.26,-108.48 884.62,-137.25 859.34,-164.56 1001.71,-177.46 1064.63,-181.77"/>
<text text-anchor="middle" x="912" y="-139" font-family="Times,serif" font-size="10.00">INNER JOIN</text>
</g>
<!-- distribution_centers&#45;&#45;distribution_centers -->
<g id="edge99" class="edge">
<title>distribution_centers&#45;&#45;distribution_centers</title>
<path fill="none" stroke="green" d="M1392.79,-108.68C1403.16,-107.79 1410.5,-105.31 1410.5,-101.25 1410.5,-97.19 1403.16,-94.71 1392.79,-93.82"/>
<text text-anchor="middle" x="1437.87" y="-97.38" font-family="Times,serif" font-size="10.00">INNER JOIN</text>
</g>
<!-- distribution_centers&#45;&#45;inventory_items -->
<g id="edge52" class="edge">
<title>distribution_centers&#45;&#45;inventory_items</title>
<path fill="none" stroke="green" d="M1392.89,-97.51C1472.56,-92.95 1613.04,-82.54 1628.37,-65.25 1631.69,-61.51 1631.54,-57.87 1628.37,-54 1612.61,-34.73 1547.15,-25.82 1501.44,-21.88"/>
<text text-anchor="middle" x="1658.18" y="-55.75" font-family="Times,serif" font-size="10.00">INNER JOIN</text>
</g>
<!-- recent_dc -->
<g id="node10" class="node">
<title>recent_dc</title>
<path fill="lightblue" stroke="black" d="M1131.25,-36C1131.25,-36 1093.5,-36 1093.5,-36 1087.5,-36 1081.5,-30 1081.5,-24 1081.5,-24 1081.5,-12 1081.5,-12 1081.5,-6 1087.5,0 1093.5,0 1093.5,0 1131.25,0 1131.25,0 1137.25,0 1143.25,-6 1143.25,-12 1143.25,-12 1143.25,-24 1143.25,-24 1143.25,-30 1137.25,-36 1131.25,-36"/>
<text text-anchor="middle" x="1112.37" y="-13.72" font-family="Times,serif" font-size="12.00">recent_dc</text>
</g>
<!-- distribution_centers&#45;&#45;recent_dc -->
<g id="edge109" class="edge">
<title>distribution_centers&#45;&#45;recent_dc</title>
<path fill="none" stroke="blue" d="M1283.98,-97.74C1229,-94.09 1148.99,-85.41 1126.12,-65.25 1117.95,-58.05 1114.54,-46.23 1113.15,-36.35"/>
<text text-anchor="middle" x="1149.75" y="-55.75" font-family="Times,serif" font-size="10.00">LEFT JOIN</text>
</g>
<!-- inventory_items&#45;&#45;order_items -->
<g id="edge92" class="edge">
<title>inventory_items&#45;&#45;order_items</title>
<path fill="none" stroke="green" d="M1501.73,-21.09C1561.12,-24.57 1659.89,-33.35 1689.37,-54 1728.5,-81.42 1708.75,-112.91 1740.62,-148.5 1768.69,-179.84 1778.73,-188.4 1818.37,-202.5 1917.07,-237.61 1951.96,-194.29 2053.37,-220.5 2060.19,-222.26 2092.08,-237.06 2118.23,-249.45"/>
<text text-anchor="middle" x="1768" y="-139" font-family="Times,serif" font-size="10.00">INNER JOIN</text>
</g>
<!-- inventory_items&#45;&#45;products -->
<g id="edge25" class="edge">
<title>inventory_items&#45;&#45;products</title>
<path fill="none" stroke="green" d="M1409.18,-21.67C1349.77,-25.08 1243.39,-31.13 1152.37,-36 1073.72,-40.21 874.82,-35.01 798.37,-54 768.51,-61.42 752.16,-57.3 735.62,-83.25 727.03,-96.74 727.03,-105.76 735.62,-119.25 752.16,-145.2 768.78,-140.08 798.37,-148.5 893.37,-175.52 1011.32,-181.7 1064.72,-183.1"/>
<text text-anchor="middle" x="763" y="-97.38" font-family="Times,serif" font-size="10.00">INNER JOIN</text>
</g>
<!-- inventory_items&#45;&#45;products -->
<g id="edge28" class="edge">
<title>inventory_items&#45;&#45;products</title>
<path fill="none" stroke="black" d="M1409.15,-21.57C1271.24,-29.24 871.74,-51.65 865.37,-54 845.12,-61.46 836.29,-63.96 826.62,-83.25 791.61,-153.14 819,-140.1 826.37,-148.5 857.21,-183.64 1002.83,-185.24 1065.06,-184.25"/>
<text text-anchor="middle" x="842" y="-97.38" font-family="Times,serif" font-size="10.00">INNER</text>
</g>
<!-- inventory_items&#45;&#45;products -->
<g id="edge33" class="edge">
<title>inventory_items&#45;&#45;products</title>
<path fill="none" stroke="green" d="M1409.44,-20.7C1283.69,-26.48 939.11,-50.13 877.37,-137.25 855.09,-168.7 1000.96,-179.27 1064.66,-182.37"/>
<text text-anchor="middle" x="993.97" y="-97.38" font-family="Times,serif" font-size="10.00">INNER JOIN</text>
</g>
<!-- inventory_items&#45;&#45;distribution_centers -->
<g id="edge10" class="edge">
<title>inventory_items&#45;&#45;distribution_centers</title>
<path fill="none" stroke="green" d="M1409.1,-21.67C1335.43,-26.41 1198.25,-37.37 1183.62,-54 1152.74,-89.11 1227.75,-98.1 1283.8,-100.11"/>
<text text-anchor="middle" x="1211" y="-55.75" font-family="Times,serif" font-size="10.00">INNER JOIN</text>
</g>
<!-- inventory_items&#45;&#45;distribution_centers -->
<g id="edge34" class="edge">
<title>inventory_items&#45;&#45;distribution_centers</title>
<path fill="none" stroke="green" d="M1409.41,-20.73C1358.18,-23.73 1280.09,-31.9 1261.62,-54 1250.1,-67.79 1264.6,-78.55 1283.98,-86.21"/>
<text text-anchor="middle" x="1289" y="-55.75" font-family="Times,serif" font-size="10.00">INNER JOIN</text>
</g>
<!-- inventory_items&#45;&#45;distribution_centers -->
<g id="edge37" class="edge">
<title>inventory_items&#45;&#45;distribution_centers</title>
<path fill="none" stroke="green" d="M1409.15,-20.56C1384.42,-24.03 1355.8,-32.81 1339.62,-54 1333.48,-62.04 1333.08,-73.37 1334.26,-82.81"/>
<text text-anchor="middle" x="1367" y="-55.75" font-family="Times,serif" font-size="10.00">INNER JOIN</text>
</g>
<!-- inventory_items&#45;&#45;distribution_centers -->
<g id="edge102" class="edge">
<title>inventory_items&#45;&#45;distribution_centers</title>
<path fill="none" stroke="green" d="M1433.42,-36.4C1421.96,-45.29 1407.61,-56.12 1394.37,-65.25 1385.78,-71.17 1376.22,-77.31 1367.47,-82.75"/>
<text text-anchor="middle" x="1437.14" y="-55.75" font-family="Times,serif" font-size="10.00">INNER JOIN</text>
</g>
<!-- inventory_items&#45;&#45;distribution_centers -->
<g id="edge103" class="edge">
<title>inventory_items&#45;&#45;distribution_centers</title>
<path fill="none" stroke="green" d="M1466.97,-36.21C1471.72,-45.57 1474.77,-56.91 1468.37,-65.25 1458.88,-77.63 1423.94,-86.62 1392.67,-92.38"/>
<text text-anchor="middle" x="1499.35" y="-55.75" font-family="Times,serif" font-size="10.00">INNER JOIN</text>
</g>
<!-- inventory_items&#45;&#45;distribution_centers -->
<g id="edge105" class="edge">
<title>inventory_items&#45;&#45;distribution_centers</title>
<path fill="none" stroke="green" d="M1501.51,-30.58C1523.72,-38.38 1543.06,-50.04 1530.37,-65.25 1513.12,-85.93 1443.23,-94.43 1392.75,-97.89"/>
<text text-anchor="middle" x="1561.76" y="-55.75" font-family="Times,serif" font-size="10.00">INNER JOIN</text>
</g>
<!-- events&#45;&#45;order_items -->
<g id="edge71" class="edge">
<title>events&#45;&#45;order_items</title>
<path fill="none" stroke="green" d="M3642.69,-108.29C3670.51,-115.65 3707.34,-129.5 3690.37,-148.5 3666.72,-174.98 3564.5,-153.1 3531.62,-166.5 3507.5,-176.33 3506.59,-187.39 3485.37,-202.5 3465.94,-216.34 3463.15,-224.66 3440.37,-231.75 3318.35,-269.74 2386.6,-267.78 2190.52,-266.93"/>
<text text-anchor="middle" x="3559" y="-180.62" font-family="Times,serif" font-size="10.00">INNER JOIN</text>
</g>
<!-- events&#45;&#45;order_items -->
<g id="edge73" class="edge">
<title>events&#45;&#45;order_items</title>
<path fill="none" stroke="blue" d="M3642.8,-105.97C3676.19,-111.63 3725.88,-124.39 3706.37,-148.5 3682.29,-178.27 3655.73,-148.15 3622.12,-166.5 3602.33,-177.3 3606.02,-191.43 3586.37,-202.5 3538.17,-229.66 3520.22,-224.47 3465.37,-231.75 3208.91,-265.78 2374.7,-266.97 2190.56,-266.81"/>
<text text-anchor="middle" x="3645.75" y="-180.62" font-family="Times,serif" font-size="10.00">LEFT JOIN</text>
</g>
<!-- events&#45;&#45;order_items -->
<g id="edge85" class="edge">
<title>events&#45;&#45;order_items</title>
<path fill="none" stroke="green" d="M3642.44,-102.72C3667.74,-104.78 3704.25,-112.25 3722.37,-137.25 3733.44,-152.52 3705.12,-153.32 3691.62,-166.5 3678.16,-179.64 3684.84,-191.8 3669.37,-202.5 3613.5,-241.13 3586.89,-224.35 3519.37,-231.75 3250.88,-261.16 2378.83,-265.94 2190.46,-266.64"/>
<text text-anchor="middle" x="3719" y="-180.62" font-family="Times,serif" font-size="10.00">INNER JOIN</text>
</g>
<!-- events&#45;&#45;users -->
<g id="edge40" class="edge">
<title>events&#45;&#45;users</title>
<path fill="none" stroke="green" d="M3601.07,-119.57C3591.36,-129.98 3577.55,-142.37 3562.37,-148.5 3546.73,-154.82 3025.58,-177.07 2899.59,-182.36"/>
<text text-anchor="middle" x="3607.95" y="-139" font-family="Times,serif" font-size="10.00">INNER JOIN</text>
</g>
<!-- events&#45;&#45;users -->
<g id="edge70" class="edge">
<title>events&#45;&#45;users</title>
<path fill="none" stroke="green" d="M3588.02,-115.14C3583.54,-116.8 3578.89,-118.26 3574.37,-119.25 3474.72,-141.13 3213.56,-108.66 3115.62,-137.25 3106.11,-140.03 3105.71,-145.18 3096.37,-148.5 3028.33,-172.72 2942.74,-180.2 2899.72,-182.5"/>
<text text-anchor="middle" x="3143" y="-139" font-family="Times,serif" font-size="10.00">INNER JOIN</text>
</g>
<!-- events&#45;&#45;orders -->
<g id="edge57" class="edge">
<title>events&#45;&#45;orders</title>
<path fill="none" stroke="blue" d="M3615.98,-83.17C3615.35,-73.12 3612.68,-61.05 3604.37,-54 3568.06,-23.2 3229.56,-19.48 3129.87,-19.05"/>
<text text-anchor="middle" x="3635.83" y="-55.75" font-family="Times,serif" font-size="10.00">LEFT JOIN</text>
</g>
<!-- events&#45;&#45;orders -->
<g id="edge87" class="edge">
<title>events&#45;&#45;orders</title>
<path fill="none" stroke="green" d="M3588,-87.02C3575.05,-80.63 3559.44,-72.74 3545.62,-65.25 3536.91,-60.53 3535.82,-56.98 3526.37,-54 3451.88,-30.5 3211.07,-21.94 3129.6,-19.67"/>
<text text-anchor="middle" x="3573" y="-55.75" font-family="Times,serif" font-size="10.00">INNER JOIN</text>
</g>
<!-- events&#45;&#45;events -->
<g id="edge88" class="edge">
<title>events&#45;&#45;events</title>
<path fill="none" stroke="blue" d="M3642.61,-109.05C3652.4,-109.21 3660.37,-106.62 3660.37,-101.25 3660.37,-95.88 3652.4,-93.29 3642.61,-93.45"/>
<text text-anchor="middle" x="3684" y="-97.38" font-family="Times,serif" font-size="10.00">LEFT JOIN</text>
</g>
</g>
</svg>
