<?xml version="1.0" encoding="UTF-8" standalone="no"?>
<!DOCTYPE svg PUBLIC "-//W3C//DTD SVG 1.1//EN"
 "http://www.w3.org/Graphics/SVG/1.1/DTD/svg11.dtd">
<!-- Generated by graphviz version 12.2.1 (20241206.2353)
 -->
<!-- Pages: 1 -->
<svg width="1800pt" height="910pt"
 viewBox="0.00 0.00 864.00 436.63" xmlns="http://www.w3.org/2000/svg" xmlns:xlink="http://www.w3.org/1999/xlink">
<g id="graph0" class="graph" transform="scale(0.665434 0.665434) rotate(0) translate(4 1363)">
<polygon fill="white" stroke="none" points="-4,4 -4,-1363 2701,-1363 2701,4 -4,4"/>
<!-- categories -->
<g id="node1" class="node">
<title>categories</title>
<path fill="lightblue" stroke="black" d="M1367.62,-1359C1367.62,-1359 1328.38,-1359 1328.38,-1359 1322.38,-1359 1316.38,-1353 1316.38,-1347 1316.38,-1347 1316.38,-1335 1316.38,-1335 1316.38,-1329 1322.38,-1323 1328.38,-1323 1328.38,-1323 1367.62,-1323 1367.62,-1323 1373.62,-1323 1379.62,-1329 1379.62,-1335 1379.62,-1335 1379.62,-1347 1379.62,-1347 1379.62,-1353 1373.62,-1359 1367.62,-1359"/>
<text text-anchor="middle" x="1348" y="-1336.72" font-family="Times,serif" font-size="12.00">categories</text>
</g>
<!-- customer_contacts -->
<g id="node2" class="node">
<title>customer_contacts</title>
<path fill="lightblue" stroke="black" d="M806.5,-1264.5C806.5,-1264.5 727.5,-1264.5 727.5,-1264.5 721.5,-1264.5 715.5,-1258.5 715.5,-1252.5 715.5,-1252.5 715.5,-1240.5 715.5,-1240.5 715.5,-1234.5 721.5,-1228.5 727.5,-1228.5 727.5,-1228.5 806.5,-1228.5 806.5,-1228.5 812.5,-1228.5 818.5,-1234.5 818.5,-1240.5 818.5,-1240.5 818.5,-1252.5 818.5,-1252.5 818.5,-1258.5 812.5,-1264.5 806.5,-1264.5"/>
<text text-anchor="middle" x="767" y="-1242.22" font-family="Times,serif" font-size="12.00">customer_contacts</text>
</g>
<!-- categories&#45;&#45;customer_contacts -->
<g id="edge1" class="edge">
<title>categories&#45;&#45;customer_contacts</title>
<path fill="none" stroke="blue" d="M1315.91,-1340.43C1223.3,-1341.24 957.22,-1340.35 879,-1305 865.97,-1299.11 868,-1290.27 856,-1282.5 844.57,-1275.1 831.33,-1268.85 818.62,-1263.77"/>
<text text-anchor="middle" x="915" y="-1295.5" font-family="Times,serif" font-size="10.00">LEFT JOIN</text>
<text text-anchor="middle" x="915" y="-1284.25" font-family="Times,serif" font-size="10.00">simple_condition</text>
</g>
<!-- categories&#45;&#45;customer_contacts -->
<g id="edge30" class="edge">
<title>categories&#45;&#45;customer_contacts</title>
<path fill="none" stroke="red" d="M1316.07,-1339.51C1187.15,-1337.38 710.8,-1327.99 689,-1305 674.36,-1289.56 693.23,-1275.34 716.07,-1264.9"/>
<text text-anchor="middle" x="725" y="-1295.5" font-family="Times,serif" font-size="10.00">RIGHT JOIN</text>
<text text-anchor="middle" x="725" y="-1284.25" font-family="Times,serif" font-size="10.00">simple_condition</text>
</g>
<!-- inventory -->
<g id="node3" class="node">
<title>inventory</title>
<path fill="lightblue" stroke="black" d="M1360.5,-886.5C1360.5,-886.5 1323.5,-886.5 1323.5,-886.5 1317.5,-886.5 1311.5,-880.5 1311.5,-874.5 1311.5,-874.5 1311.5,-862.5 1311.5,-862.5 1311.5,-856.5 1317.5,-850.5 1323.5,-850.5 1323.5,-850.5 1360.5,-850.5 1360.5,-850.5 1366.5,-850.5 1372.5,-856.5 1372.5,-862.5 1372.5,-862.5 1372.5,-874.5 1372.5,-874.5 1372.5,-880.5 1366.5,-886.5 1360.5,-886.5"/>
<text text-anchor="middle" x="1342" y="-864.23" font-family="Times,serif" font-size="12.00">inventory</text>
</g>
<!-- categories&#45;&#45;inventory -->
<g id="edge22" class="edge">
<title>categories&#45;&#45;inventory</title>
<path fill="none" stroke="red" d="M1349.97,-1322.73C1354.98,-1276.72 1367.59,-1147.32 1364,-1039.5 1362,-979.4 1367.6,-963.3 1355,-904.5 1353.72,-898.54 1351.63,-892.24 1349.5,-886.65"/>
<text text-anchor="middle" x="1400.56" y="-1106.5" font-family="Times,serif" font-size="10.00">RIGHT JOIN</text>
<text text-anchor="middle" x="1400.56" y="-1095.25" font-family="Times,serif" font-size="10.00">simple_condition</text>
</g>
<!-- categories&#45;&#45;inventory -->
<g id="edge26" class="edge">
<title>categories&#45;&#45;inventory</title>
<path fill="none" stroke="blue" d="M1364.9,-1322.73C1412.8,-1271.63 1542.02,-1117.37 1480,-999 1473.48,-986.55 1464.8,-989.99 1454,-981 1417.1,-950.28 1378.31,-909.45 1357.46,-886.7"/>
<text text-anchor="middle" x="1530.67" y="-1106.5" font-family="Times,serif" font-size="10.00">LEFT JOIN</text>
<text text-anchor="middle" x="1530.67" y="-1095.25" font-family="Times,serif" font-size="10.00">simple_condition</text>
</g>
<!-- shipments -->
<g id="node6" class="node">
<title>shipments</title>
<path fill="lightblue" stroke="black" d="M895.62,-130.5C895.62,-130.5 856.38,-130.5 856.38,-130.5 850.38,-130.5 844.38,-124.5 844.38,-118.5 844.38,-118.5 844.38,-106.5 844.38,-106.5 844.38,-100.5 850.38,-94.5 856.38,-94.5 856.38,-94.5 895.62,-94.5 895.62,-94.5 901.62,-94.5 907.62,-100.5 907.62,-106.5 907.62,-106.5 907.62,-118.5 907.62,-118.5 907.62,-124.5 901.62,-130.5 895.62,-130.5"/>
<text text-anchor="middle" x="876" y="-108.22" font-family="Times,serif" font-size="12.00">shipments</text>
</g>
<!-- categories&#45;&#45;shipments -->
<g id="edge23" class="edge">
<title>categories&#45;&#45;shipments</title>
<path fill="none" stroke="green" d="M1379.89,-1340.35C1499.88,-1341.34 1935.57,-1342.02 2292,-1305 2441.39,-1289.48 2625,-1397.69 2625,-1247.5 2625,-1247.5 2625,-1247.5 2625,-678.5 2625,-465.41 2276,-562.84 2276,-349.75 2276,-349.75 2276,-349.75 2276,-206 2276,-102.98 1918.68,-156.81 1816,-148.5 1724.03,-141.05 1061.85,-119.48 907.91,-114.52"/>
<text text-anchor="middle" x="2661" y="-728.5" font-family="Times,serif" font-size="10.00">INNER JOIN</text>
<text text-anchor="middle" x="2661" y="-717.25" font-family="Times,serif" font-size="10.00">simple_condition</text>
</g>
<!-- products -->
<g id="node10" class="node">
<title>products</title>
<path fill="lightblue" stroke="black" d="M686.25,-508.5C686.25,-508.5 653.75,-508.5 653.75,-508.5 647.75,-508.5 641.75,-502.5 641.75,-496.5 641.75,-496.5 641.75,-484.5 641.75,-484.5 641.75,-478.5 647.75,-472.5 653.75,-472.5 653.75,-472.5 686.25,-472.5 686.25,-472.5 692.25,-472.5 698.25,-478.5 698.25,-484.5 698.25,-484.5 698.25,-496.5 698.25,-496.5 698.25,-502.5 692.25,-508.5 686.25,-508.5"/>
<text text-anchor="middle" x="670" y="-486.23" font-family="Times,serif" font-size="12.00">products</text>
</g>
<!-- categories&#45;&#45;products -->
<g id="edge95" class="edge">
<title>categories&#45;&#45;products</title>
<path fill="none" stroke="green" d="M1315.9,-1339.98C1133.05,-1339.74 226.75,-1336.94 107,-1305 54.84,-1291.09 0,-1301.49 0,-1247.5 0,-1247.5 0,-1247.5 0,-584 0,-518.17 514.11,-496.69 641.64,-492.38"/>
<text text-anchor="middle" x="36" y="-917.5" font-family="Times,serif" font-size="10.00">INNER JOIN</text>
<text text-anchor="middle" x="36" y="-906.25" font-family="Times,serif" font-size="10.00">simple_condition</text>
</g>
<!-- customers -->
<g id="node13" class="node">
<title>customers</title>
<path fill="lightblue" stroke="black" d="M1059.62,-981C1059.62,-981 1020.38,-981 1020.38,-981 1014.38,-981 1008.38,-975 1008.38,-969 1008.38,-969 1008.38,-957 1008.38,-957 1008.38,-951 1014.38,-945 1020.38,-945 1020.38,-945 1059.62,-945 1059.62,-945 1065.62,-945 1071.62,-951 1071.62,-957 1071.62,-957 1071.62,-969 1071.62,-969 1071.62,-975 1065.62,-981 1059.62,-981"/>
<text text-anchor="middle" x="1040" y="-958.73" font-family="Times,serif" font-size="12.00">customers</text>
</g>
<!-- categories&#45;&#45;customers -->
<g id="edge56" class="edge">
<title>categories&#45;&#45;customers</title>
<path fill="none" stroke="green" d="M1315.98,-1340.07C1241.75,-1338.29 1058.21,-1322.25 979,-1210.5 926.99,-1137.13 996.61,-1024.16 1027.03,-981.3"/>
<text text-anchor="middle" x="997.92" y="-1153.75" font-family="Times,serif" font-size="10.00">INNER JOIN</text>
<text text-anchor="middle" x="997.92" y="-1142.5" font-family="Times,serif" font-size="10.00">simple_condition</text>
</g>
<!-- inventory_movements -->
<g id="node16" class="node">
<title>inventory_movements</title>
<path fill="lightblue" stroke="black" d="M1210.5,-1170C1210.5,-1170 1113.5,-1170 1113.5,-1170 1107.5,-1170 1101.5,-1164 1101.5,-1158 1101.5,-1158 1101.5,-1146 1101.5,-1146 1101.5,-1140 1107.5,-1134 1113.5,-1134 1113.5,-1134 1210.5,-1134 1210.5,-1134 1216.5,-1134 1222.5,-1140 1222.5,-1146 1222.5,-1146 1222.5,-1158 1222.5,-1158 1222.5,-1164 1216.5,-1170 1210.5,-1170"/>
<text text-anchor="middle" x="1162" y="-1147.72" font-family="Times,serif" font-size="12.00">inventory_movements</text>
</g>
<!-- categories&#45;&#45;inventory_movements -->
<g id="edge66" class="edge">
<title>categories&#45;&#45;inventory_movements</title>
<path fill="none" stroke="blue" d="M1330.83,-1322.74C1295.49,-1287.21 1214.93,-1206.22 1179.39,-1170.49"/>
<text text-anchor="middle" x="1306.44" y="-1248.25" font-family="Times,serif" font-size="10.00">LEFT JOIN</text>
<text text-anchor="middle" x="1306.44" y="-1237" font-family="Times,serif" font-size="10.00">simple_condition</text>
</g>
<!-- customer_contacts&#45;&#45;categories -->
<g id="edge55" class="edge">
<title>customer_contacts&#45;&#45;categories</title>
<path fill="none" stroke="red" d="M765.83,-1264.86C765.99,-1277.98 768.62,-1295.32 780,-1305 820.92,-1339.81 1202.31,-1340.74 1316.1,-1340.23"/>
<text text-anchor="middle" x="816" y="-1295.5" font-family="Times,serif" font-size="10.00">RIGHT JOIN</text>
<text text-anchor="middle" x="816" y="-1284.25" font-family="Times,serif" font-size="10.00">simple_condition</text>
</g>
<!-- customer_contacts&#45;&#45;inventory -->
<g id="edge2" class="edge">
<title>customer_contacts&#45;&#45;inventory</title>
<path fill="none" stroke="green" d="M818.89,-1243.9C927.05,-1239.52 1171.61,-1223.78 1232,-1170 1259.65,-1145.38 1249.38,-1127.07 1265,-1093.5 1276.32,-1069.17 1276.31,-1061.27 1292,-1039.5 1298.62,-1030.32 1304.12,-1031.17 1310,-1021.5 1332.9,-983.85 1332.5,-970.42 1340,-927 1342.3,-913.71 1342.73,-898.45 1342.62,-886.99"/>
<text text-anchor="middle" x="1328" y="-1059.25" font-family="Times,serif" font-size="10.00">INNER JOIN</text>
<text text-anchor="middle" x="1328" y="-1048" font-family="Times,serif" font-size="10.00">simple_condition</text>
</g>
<!-- return_orders -->
<g id="node7" class="node">
<title>return_orders</title>
<path fill="lightblue" stroke="black" d="M1472.5,-319.5C1472.5,-319.5 1417.5,-319.5 1417.5,-319.5 1411.5,-319.5 1405.5,-313.5 1405.5,-307.5 1405.5,-307.5 1405.5,-295.5 1405.5,-295.5 1405.5,-289.5 1411.5,-283.5 1417.5,-283.5 1417.5,-283.5 1472.5,-283.5 1472.5,-283.5 1478.5,-283.5 1484.5,-289.5 1484.5,-295.5 1484.5,-295.5 1484.5,-307.5 1484.5,-307.5 1484.5,-313.5 1478.5,-319.5 1472.5,-319.5"/>
<text text-anchor="middle" x="1445" y="-297.23" font-family="Times,serif" font-size="12.00">return_orders</text>
</g>
<!-- customer_contacts&#45;&#45;return_orders -->
<g id="edge24" class="edge">
<title>customer_contacts&#45;&#45;return_orders</title>
<path fill="none" stroke="green" d="M818.61,-1232.53C832.19,-1227.32 846.09,-1220.18 857,-1210.5 957.14,-1121.73 929.73,-1059.5 999,-945 1062.84,-839.47 1063.64,-798.35 1155,-715.5 1167.38,-704.28 1174.14,-706.83 1188,-697.5 1219.44,-676.33 1232.49,-674.71 1254,-643.5 1299.46,-577.54 1273.04,-543.04 1311,-472.5 1344.12,-410.95 1399.85,-349.1 1427.85,-319.87"/>
<text text-anchor="middle" x="1149.95" y="-775.75" font-family="Times,serif" font-size="10.00">INNER JOIN</text>
<text text-anchor="middle" x="1149.95" y="-764.5" font-family="Times,serif" font-size="10.00">simple_condition</text>
</g>
<!-- payments -->
<g id="node8" class="node">
<title>payments</title>
<path fill="lightblue" stroke="black" d="M1572.5,-225C1572.5,-225 1535.5,-225 1535.5,-225 1529.5,-225 1523.5,-219 1523.5,-213 1523.5,-213 1523.5,-201 1523.5,-201 1523.5,-195 1529.5,-189 1535.5,-189 1535.5,-189 1572.5,-189 1572.5,-189 1578.5,-189 1584.5,-195 1584.5,-201 1584.5,-201 1584.5,-213 1584.5,-213 1584.5,-219 1578.5,-225 1572.5,-225"/>
<text text-anchor="middle" x="1554" y="-202.72" font-family="Times,serif" font-size="12.00">payments</text>
</g>
<!-- customer_contacts&#45;&#45;payments -->
<g id="edge5" class="edge">
<title>customer_contacts&#45;&#45;payments</title>
<path fill="none" stroke="red" d="M715.12,-1245.99C618.06,-1246.12 413.21,-1242.45 351,-1210.5 321.13,-1195.16 302,-1186.58 302,-1153 302,-1153 302,-1153 302,-962 302,-786.22 169.67,-702.21 282,-567 413.3,-408.95 945.52,-277.92 1148,-243 1220.16,-230.56 1441.08,-215.35 1523,-209.99"/>
<text text-anchor="middle" x="282.27" y="-728.5" font-family="Times,serif" font-size="10.00">RIGHT JOIN</text>
<text text-anchor="middle" x="282.27" y="-717.25" font-family="Times,serif" font-size="10.00">simple_condition</text>
</g>
<!-- customer_contacts&#45;&#45;payments -->
<g id="edge50" class="edge">
<title>customer_contacts&#45;&#45;payments</title>
<path fill="none" stroke="red" d="M774.73,-1228.24C811.61,-1146.4 971.44,-798.04 1056,-715.5 1068.52,-703.28 1075.97,-706.45 1091,-697.5 1127.54,-675.73 1143.83,-677.02 1170,-643.5 1191.32,-616.19 1197,-599.5 1185,-567 1173.16,-534.91 1146.84,-540.59 1135,-508.5 1129.46,-493.49 1126.07,-485.77 1135,-472.5 1173.57,-415.19 1224.9,-456.95 1279,-414 1295.3,-401.06 1319.14,-353.02 1333,-337.5 1375.03,-290.41 1383.97,-273.91 1439,-243 1465.57,-228.08 1499.23,-218.79 1523.26,-213.57"/>
<text text-anchor="middle" x="1092" y="-728.5" font-family="Times,serif" font-size="10.00">RIGHT JOIN</text>
<text text-anchor="middle" x="1092" y="-717.25" font-family="Times,serif" font-size="10.00">simple_condition</text>
</g>
<!-- orders -->
<g id="node9" class="node">
<title>orders</title>
<path fill="lightblue" stroke="black" d="M1873,-130.5C1873,-130.5 1843,-130.5 1843,-130.5 1837,-130.5 1831,-124.5 1831,-118.5 1831,-118.5 1831,-106.5 1831,-106.5 1831,-100.5 1837,-94.5 1843,-94.5 1843,-94.5 1873,-94.5 1873,-94.5 1879,-94.5 1885,-100.5 1885,-106.5 1885,-106.5 1885,-118.5 1885,-118.5 1885,-124.5 1879,-130.5 1873,-130.5"/>
<text text-anchor="middle" x="1858" y="-108.22" font-family="Times,serif" font-size="12.00">orders</text>
</g>
<!-- customer_contacts&#45;&#45;orders -->
<g id="edge47" class="edge">
<title>customer_contacts&#45;&#45;orders</title>
<path fill="none" stroke="green" d="M818.72,-1242.02C1032.59,-1227.12 1847.92,-1165.45 2088,-1075.5 2130.26,-1059.66 2141.65,-1052.97 2174,-1021.5 2196.22,-999.88 2105.01,-1137.51 2337,-756 2383.02,-680.32 2441,-674.57 2441,-586 2441,-586 2441,-586 2441,-206 2441,-144.04 2374.02,-163.88 2314,-148.5 2232.09,-127.51 1970.8,-117.22 1885.34,-114.35"/>
<text text-anchor="middle" x="2454.01" y="-681.25" font-family="Times,serif" font-size="10.00">INNER JOIN</text>
<text text-anchor="middle" x="2454.01" y="-670" font-family="Times,serif" font-size="10.00">simple_condition</text>
</g>
<!-- customer_contacts&#45;&#45;products -->
<g id="edge53" class="edge">
<title>customer_contacts&#45;&#45;products</title>
<path fill="none" stroke="green" d="M715.34,-1243.96C609.53,-1239.38 378,-1221.55 378,-1153 378,-1153 378,-1153 378,-1009.25 378,-938.6 353.47,-913.21 386,-850.5 391.98,-838.98 399.76,-841.62 409,-832.5 447.36,-794.64 535,-690.71 561,-643.5 587.51,-595.36 564.95,-567.98 601,-526.5 611.66,-514.23 627.66,-505.74 641.57,-500.2"/>
<text text-anchor="middle" x="422" y="-870.25" font-family="Times,serif" font-size="10.00">INNER JOIN</text>
<text text-anchor="middle" x="422" y="-859" font-family="Times,serif" font-size="10.00">simple_condition</text>
</g>
<!-- departments -->
<g id="node11" class="node">
<title>departments</title>
<path fill="lightblue" stroke="black" d="M949.5,-697.5C949.5,-697.5 900.5,-697.5 900.5,-697.5 894.5,-697.5 888.5,-691.5 888.5,-685.5 888.5,-685.5 888.5,-673.5 888.5,-673.5 888.5,-667.5 894.5,-661.5 900.5,-661.5 900.5,-661.5 949.5,-661.5 949.5,-661.5 955.5,-661.5 961.5,-667.5 961.5,-673.5 961.5,-673.5 961.5,-685.5 961.5,-685.5 961.5,-691.5 955.5,-697.5 949.5,-697.5"/>
<text text-anchor="middle" x="925" y="-675.23" font-family="Times,serif" font-size="12.00">departments</text>
</g>
<!-- customer_contacts&#45;&#45;departments -->
<g id="edge57" class="edge">
<title>customer_contacts&#45;&#45;departments</title>
<path fill="none" stroke="red" d="M715.2,-1236.35C670.81,-1225.18 614,-1201.42 614,-1153 614,-1153 614,-1153 614,-1009.25 614,-942.12 664.86,-942.42 702,-886.5 729.26,-845.45 746.61,-839.42 760,-792 766.52,-768.9 759.67,-761.99 759,-738 758.72,-728 752.7,-723.27 759,-715.5 774.96,-695.83 844.41,-686.79 888.27,-682.98"/>
<text text-anchor="middle" x="678.01" y="-964.75" font-family="Times,serif" font-size="10.00">RIGHT JOIN</text>
<text text-anchor="middle" x="678.01" y="-953.5" font-family="Times,serif" font-size="10.00">simple_condition</text>
</g>
<!-- order_details -->
<g id="node15" class="node">
<title>order_details</title>
<path fill="lightblue" stroke="black" d="M783.38,-414C783.38,-414 730.62,-414 730.62,-414 724.62,-414 718.62,-408 718.62,-402 718.62,-402 718.62,-390 718.62,-390 718.62,-384 724.62,-378 730.62,-378 730.62,-378 783.38,-378 783.38,-378 789.38,-378 795.38,-384 795.38,-390 795.38,-390 795.38,-402 795.38,-402 795.38,-408 789.38,-414 783.38,-414"/>
<text text-anchor="middle" x="757" y="-391.73" font-family="Times,serif" font-size="12.00">order_details</text>
</g>
<!-- customer_contacts&#45;&#45;order_details -->
<g id="edge80" class="edge">
<title>customer_contacts&#45;&#45;order_details</title>
<path fill="none" stroke="green" d="M715.16,-1244.66C627.88,-1242.56 455.72,-1235.31 401,-1210.5 367.07,-1195.12 340,-1190.26 340,-1153 340,-1153 340,-1153 340,-1009.25 340,-922.96 298.98,-693.35 346,-621 355.32,-606.66 365.16,-611.5 380,-603 505.56,-531.11 526.4,-494.26 657,-432 676.59,-422.66 699.37,-414.49 718.23,-408.4"/>
<text text-anchor="middle" x="362.78" y="-823" font-family="Times,serif" font-size="10.00">INNER JOIN</text>
<text text-anchor="middle" x="362.78" y="-811.75" font-family="Times,serif" font-size="10.00">simple_condition</text>
</g>
<!-- customer_contacts&#45;&#45;inventory_movements -->
<g id="edge43" class="edge">
<title>customer_contacts&#45;&#45;inventory_movements</title>
<path fill="none" stroke="red" d="M818.71,-1235.13C851.52,-1228.42 894.83,-1219.31 933,-1210.5 990.31,-1197.27 1055.33,-1180.8 1101.4,-1168.89"/>
<text text-anchor="middle" x="1057.33" y="-1201" font-family="Times,serif" font-size="10.00">RIGHT JOIN</text>
<text text-anchor="middle" x="1057.33" y="-1189.75" font-family="Times,serif" font-size="10.00">simple_condition</text>
</g>
<!-- inventory&#45;&#45;categories -->
<g id="edge40" class="edge">
<title>inventory&#45;&#45;categories</title>
<path fill="none" stroke="blue" d="M1372.09,-886.9C1380.93,-892.29 1390.5,-898.42 1399,-904.5 1421.98,-920.93 1427.47,-925.59 1448,-945 1502.71,-996.72 1509.15,-1016.57 1556,-1075.5 1562.48,-1083.65 1567.45,-1083.71 1571,-1093.5 1610.49,-1202.57 1450.49,-1292.32 1379.92,-1325.86"/>
<text text-anchor="middle" x="1612.33" y="-1106.5" font-family="Times,serif" font-size="10.00">LEFT JOIN</text>
<text text-anchor="middle" x="1612.33" y="-1095.25" font-family="Times,serif" font-size="10.00">simple_condition</text>
</g>
<!-- inventory&#45;&#45;customers -->
<g id="edge46" class="edge">
<title>inventory&#45;&#45;customers</title>
<path fill="none" stroke="green" d="M1311.06,-877.9C1262.72,-891.19 1166.48,-918.29 1086,-945 1081.47,-946.5 1076.73,-948.16 1072.07,-949.83"/>
<text text-anchor="middle" x="1247.45" y="-917.5" font-family="Times,serif" font-size="10.00">INNER JOIN</text>
<text text-anchor="middle" x="1247.45" y="-906.25" font-family="Times,serif" font-size="10.00">simple_condition</text>
</g>
<!-- suppliers -->
<g id="node14" class="node">
<title>suppliers</title>
<path fill="lightblue" stroke="black" d="M1387,-792C1387,-792 1353,-792 1353,-792 1347,-792 1341,-786 1341,-780 1341,-780 1341,-768 1341,-768 1341,-762 1347,-756 1353,-756 1353,-756 1387,-756 1387,-756 1393,-756 1399,-762 1399,-768 1399,-768 1399,-780 1399,-780 1399,-786 1393,-792 1387,-792"/>
<text text-anchor="middle" x="1370" y="-769.73" font-family="Times,serif" font-size="12.00">suppliers</text>
</g>
<!-- inventory&#45;&#45;suppliers -->
<g id="edge84" class="edge">
<title>inventory&#45;&#45;suppliers</title>
<path fill="none" stroke="red" d="M1311.11,-853.69C1302.74,-848.34 1294.7,-841.34 1290,-832.5 1285.3,-823.67 1284.53,-818.37 1290,-810 1301.2,-792.87 1322.84,-784.08 1340.79,-779.59"/>
<text text-anchor="middle" x="1326" y="-823" font-family="Times,serif" font-size="10.00">RIGHT JOIN</text>
<text text-anchor="middle" x="1326" y="-811.75" font-family="Times,serif" font-size="10.00">simple_condition</text>
</g>
<!-- inventory&#45;&#45;inventory_movements -->
<g id="edge64" class="edge">
<title>inventory&#45;&#45;inventory_movements</title>
<path fill="none" stroke="blue" d="M1338.79,-886.78C1333.38,-911.16 1320.16,-955.52 1292,-981 1273.24,-997.97 1256.29,-981.52 1238,-999 1197.72,-1037.49 1221.93,-1068.39 1193,-1116 1189.21,-1122.24 1184.25,-1128.42 1179.41,-1133.81"/>
<text text-anchor="middle" x="1274" y="-1012" font-family="Times,serif" font-size="10.00">LEFT JOIN</text>
<text text-anchor="middle" x="1274" y="-1000.75" font-family="Times,serif" font-size="10.00">simple_condition</text>
</g>
<!-- employees -->
<g id="node4" class="node">
<title>employees</title>
<path fill="lightblue" stroke="black" d="M1164.12,-603C1164.12,-603 1121.88,-603 1121.88,-603 1115.88,-603 1109.88,-597 1109.88,-591 1109.88,-591 1109.88,-579 1109.88,-579 1109.88,-573 1115.88,-567 1121.88,-567 1121.88,-567 1164.12,-567 1164.12,-567 1170.12,-567 1176.12,-573 1176.12,-579 1176.12,-579 1176.12,-591 1176.12,-591 1176.12,-597 1170.12,-603 1164.12,-603"/>
<text text-anchor="middle" x="1143" y="-580.73" font-family="Times,serif" font-size="12.00">employees</text>
</g>
<!-- employees&#45;&#45;customer_contacts -->
<g id="edge73" class="edge">
<title>employees&#45;&#45;customer_contacts</title>
<path fill="none" stroke="red" d="M1143.53,-603.32C1142.94,-616.24 1139.89,-633.34 1129,-643.5 1094.38,-675.8 1067.91,-643.8 1024,-661.5 997.59,-672.15 997.79,-687.83 971,-697.5 931.73,-711.67 812.56,-685.05 784,-715.5 775.02,-725.07 768.55,-1138 767.24,-1228.21"/>
<text text-anchor="middle" x="809.66" y="-917.5" font-family="Times,serif" font-size="10.00">RIGHT JOIN</text>
<text text-anchor="middle" x="809.66" y="-906.25" font-family="Times,serif" font-size="10.00">simple_condition</text>
</g>
<!-- employees&#45;&#45;inventory -->
<g id="edge91" class="edge">
<title>employees&#45;&#45;inventory</title>
<path fill="none" stroke="red" d="M1166.43,-603.4C1171.52,-608.46 1176.22,-614.42 1179,-621 1199.4,-669.29 1141.3,-690.74 1164,-738 1193.53,-799.49 1268.42,-838.19 1311.06,-855.99"/>
<text text-anchor="middle" x="1200" y="-728.5" font-family="Times,serif" font-size="10.00">RIGHT JOIN</text>
<text text-anchor="middle" x="1200" y="-717.25" font-family="Times,serif" font-size="10.00">simple_condition</text>
</g>
<!-- locations -->
<g id="node5" class="node">
<title>locations</title>
<path fill="lightblue" stroke="black" d="M1714,-1075.5C1714,-1075.5 1680,-1075.5 1680,-1075.5 1674,-1075.5 1668,-1069.5 1668,-1063.5 1668,-1063.5 1668,-1051.5 1668,-1051.5 1668,-1045.5 1674,-1039.5 1680,-1039.5 1680,-1039.5 1714,-1039.5 1714,-1039.5 1720,-1039.5 1726,-1045.5 1726,-1051.5 1726,-1051.5 1726,-1063.5 1726,-1063.5 1726,-1069.5 1720,-1075.5 1714,-1075.5"/>
<text text-anchor="middle" x="1697" y="-1053.22" font-family="Times,serif" font-size="12.00">locations</text>
</g>
<!-- employees&#45;&#45;locations -->
<g id="edge3" class="edge">
<title>employees&#45;&#45;locations</title>
<path fill="none" stroke="red" d="M1173.66,-603.34C1181.16,-608.44 1188.81,-614.43 1195,-621 1236.4,-664.94 1224.36,-692.47 1264,-738 1289.34,-767.11 1300.27,-770.03 1332,-792 1344.78,-800.85 1349.38,-800.92 1362,-810 1436.97,-863.95 1455.28,-879.1 1520,-945 1550.86,-976.43 1545.8,-997.91 1583,-1021.5 1610.49,-1038.93 1623.02,-1029.5 1654,-1039.5 1658.43,-1040.93 1663.06,-1042.59 1667.57,-1044.29"/>
<text text-anchor="middle" x="1428.69" y="-823" font-family="Times,serif" font-size="10.00">RIGHT JOIN</text>
<text text-anchor="middle" x="1428.69" y="-811.75" font-family="Times,serif" font-size="10.00">simple_condition</text>
</g>
<!-- employees&#45;&#45;locations -->
<g id="edge21" class="edge">
<title>employees&#45;&#45;locations</title>
<path fill="none" stroke="blue" d="M1152.44,-603.33C1157.65,-615.43 1161.65,-631.5 1154,-643.5 1133.57,-675.52 1020.1,-683.92 999,-715.5 939.87,-803.98 951,-937.13 999,-981 1024.88,-1004.65 1279.49,-992.86 1314,-999 1347.84,-1005.02 1354.19,-1015.3 1388,-1021.5 1504.55,-1042.87 1538.42,-1013.41 1654,-1039.5 1658.54,-1040.53 1663.23,-1041.96 1667.77,-1043.56"/>
<text text-anchor="middle" x="998.53" y="-823" font-family="Times,serif" font-size="10.00">LEFT JOIN</text>
<text text-anchor="middle" x="998.53" y="-811.75" font-family="Times,serif" font-size="10.00">simple_condition</text>
</g>
<!-- employees&#45;&#45;products -->
<g id="edge72" class="edge">
<title>employees&#45;&#45;products</title>
<path fill="none" stroke="blue" d="M1109.74,-577.5C1021.32,-560.2 781.52,-513.31 698.64,-497.1"/>
<text text-anchor="middle" x="998.78" y="-539.5" font-family="Times,serif" font-size="10.00">LEFT JOIN</text>
<text text-anchor="middle" x="998.78" y="-528.25" font-family="Times,serif" font-size="10.00">simple_condition</text>
</g>
<!-- locations&#45;&#45;categories -->
<g id="edge29" class="edge">
<title>locations&#45;&#45;categories</title>
<path fill="none" stroke="red" d="M1726.32,-1073.3C1733.77,-1078.59 1740.84,-1085.32 1745,-1093.5 1787.6,-1177.29 1808.48,-1235.67 1745,-1305 1720.53,-1331.73 1470.23,-1338.15 1380.11,-1339.6"/>
<text text-anchor="middle" x="1821.06" y="-1201" font-family="Times,serif" font-size="10.00">RIGHT JOIN</text>
<text text-anchor="middle" x="1821.06" y="-1189.75" font-family="Times,serif" font-size="10.00">simple_condition</text>
</g>
<!-- locations&#45;&#45;shipments -->
<g id="edge68" class="edge">
<title>locations&#45;&#45;shipments</title>
<path fill="none" stroke="red" d="M1726.4,-1040.95C1727.93,-1040.41 1729.47,-1039.92 1731,-1039.5 1785.58,-1024.56 1935.97,-1049.75 1985,-1021.5 2011.75,-1006.08 2024,-994.88 2024,-964 2024,-964 2024,-964 2024,-725.75 2024,-679.19 2050.7,-658.42 2023,-621 2007.19,-599.65 1982.11,-624.12 1966,-603 1961.6,-597.23 1961.67,-479.72 1961,-472.5 1959.32,-454.38 1961.11,-449.14 1955,-432 1912.76,-313.54 1916.91,-255.23 1810,-189 1765.48,-161.42 1626.14,-182.31 1575,-171 1547.19,-164.85 1542.87,-154.35 1515,-148.5 1397.02,-123.75 1019.92,-115.81 907.76,-113.97"/>
<text text-anchor="middle" x="2002" y="-586.75" font-family="Times,serif" font-size="10.00">RIGHT JOIN</text>
<text text-anchor="middle" x="2002" y="-575.5" font-family="Times,serif" font-size="10.00">simple_condition</text>
</g>
<!-- locations&#45;&#45;shipments -->
<g id="edge94" class="edge">
<title>locations&#45;&#45;shipments</title>
<path fill="none" stroke="red" d="M1726.39,-1040.94C1727.93,-1040.4 1729.47,-1039.91 1731,-1039.5 1791.62,-1023.13 1956.86,-1049.62 2013,-1021.5 2043.02,-1006.46 2062,-997.58 2062,-964 2062,-964 2062,-964 2062,-678.5 2062,-441.06 2053.08,-308.66 1848,-189 1831.14,-179.16 1696.34,-151.19 1677,-148.5 1599.97,-137.79 1046.91,-119.1 907.73,-114.53"/>
<text text-anchor="middle" x="2097.4" y="-586.75" font-family="Times,serif" font-size="10.00">RIGHT JOIN</text>
<text text-anchor="middle" x="2097.4" y="-575.5" font-family="Times,serif" font-size="10.00">simple_condition</text>
</g>
<!-- locations&#45;&#45;return_orders -->
<g id="edge16" class="edge">
<title>locations&#45;&#45;return_orders</title>
<path fill="none" stroke="blue" d="M1700.58,-1039.13C1701.57,-1033.53 1702.51,-1027.27 1703,-1021.5 1703.85,-1011.54 1703.89,-1008.96 1703,-999 1677.54,-715.01 1669.49,-633.04 1542,-378 1532.33,-358.65 1531.22,-351.82 1515,-337.5 1506.14,-329.68 1495.22,-323.13 1484.66,-317.89"/>
<text text-anchor="middle" x="1701.18" y="-681.25" font-family="Times,serif" font-size="10.00">LEFT JOIN</text>
<text text-anchor="middle" x="1701.18" y="-670" font-family="Times,serif" font-size="10.00">simple_condition</text>
</g>
<!-- locations&#45;&#45;return_orders -->
<g id="edge49" class="edge">
<title>locations&#45;&#45;return_orders</title>
<path fill="none" stroke="blue" d="M1723.23,-1039.31C1744.86,-1022.85 1772,-995.84 1772,-964 1772,-964 1772,-964 1772,-725.75 1772,-524.28 1695.75,-462.83 1538,-337.5 1522.6,-325.27 1502.48,-316.99 1484.89,-311.57"/>
<text text-anchor="middle" x="1807.37" y="-681.25" font-family="Times,serif" font-size="10.00">LEFT JOIN</text>
<text text-anchor="middle" x="1807.37" y="-670" font-family="Times,serif" font-size="10.00">simple_condition</text>
</g>
<!-- locations&#45;&#45;payments -->
<g id="edge11" class="edge">
<title>locations&#45;&#45;payments</title>
<path fill="none" stroke="green" d="M1726.32,-1052.82C1794.81,-1044.2 1959.67,-1023.29 1962,-1021.5 1983.99,-1004.67 1986,-991.69 1986,-964 1986,-964 1986,-964 1986,-725.75 1986,-686.02 1970.51,-678.1 1951,-643.5 1941.04,-625.84 1934.8,-622.7 1930,-603 1911.98,-529.12 1977.86,-495.49 1936,-432 1891.28,-364.18 1832.87,-408.9 1768,-360 1715.18,-320.18 1730.72,-280.17 1676,-243 1648.48,-224.31 1610.98,-215.49 1584.84,-211.4"/>
<text text-anchor="middle" x="1987" y="-634" font-family="Times,serif" font-size="10.00">INNER JOIN</text>
<text text-anchor="middle" x="1987" y="-622.75" font-family="Times,serif" font-size="10.00">simple_condition</text>
</g>
<!-- locations&#45;&#45;customers -->
<g id="edge74" class="edge">
<title>locations&#45;&#45;customers</title>
<path fill="none" stroke="red" d="M1667.74,-1043.71C1663.2,-1042.09 1658.52,-1040.61 1654,-1039.5 1579.78,-1021.28 1558.38,-1034.07 1483,-1021.5 1438.92,-1014.15 1429.23,-1005.36 1385,-999 1253.23,-980.04 1216.29,-1008.37 1086,-981 1081.42,-980.04 1076.68,-978.7 1072.07,-977.2"/>
<text text-anchor="middle" x="1519" y="-1012" font-family="Times,serif" font-size="10.00">RIGHT JOIN</text>
<text text-anchor="middle" x="1519" y="-1000.75" font-family="Times,serif" font-size="10.00">simple_condition</text>
</g>
<!-- shipments&#45;&#45;customer_contacts -->
<g id="edge58" class="edge">
<title>shipments&#45;&#45;customer_contacts</title>
<path fill="none" stroke="blue" d="M843.89,-115.5C763.49,-120.7 557.95,-135.13 530,-148.5 507.18,-159.42 506.18,-169.55 490,-189 326.38,-385.75 237.63,-417.35 161,-661.5 125.93,-773.25 235.88,-790.56 263,-904.5 273.78,-949.79 264,-962.69 264,-1009.25 264,-1153 264,-1153 264,-1153 264,-1186.01 281.74,-1195.23 311,-1210.5 346.11,-1228.82 603.43,-1239.84 715.3,-1243.82"/>
<text text-anchor="middle" x="197" y="-681.25" font-family="Times,serif" font-size="10.00">LEFT JOIN</text>
<text text-anchor="middle" x="197" y="-670" font-family="Times,serif" font-size="10.00">simple_condition</text>
</g>
<!-- shipments&#45;&#45;return_orders -->
<g id="edge4" class="edge">
<title>shipments&#45;&#45;return_orders</title>
<path fill="none" stroke="red" d="M871.29,-130.85C863.82,-162.63 853.6,-230.14 890,-265.5 926.74,-301.2 1284.07,-301.76 1405.13,-300.91"/>
<text text-anchor="middle" x="903.53" y="-208.75" font-family="Times,serif" font-size="10.00">RIGHT JOIN</text>
<text text-anchor="middle" x="903.53" y="-197.5" font-family="Times,serif" font-size="10.00">simple_condition</text>
</g>
<!-- shipments&#45;&#45;departments -->
<g id="edge54" class="edge">
<title>shipments&#45;&#45;departments</title>
<path fill="none" stroke="blue" d="M867.23,-130.92C864.82,-136.42 862.47,-142.6 861,-148.5 840.58,-230.29 848.56,-253.27 845,-337.5 840.49,-444.17 897.75,-461.8 916,-567 921.81,-600.5 912.97,-609.74 917,-643.5 917.69,-649.32 918.96,-655.58 920.28,-661.18"/>
<text text-anchor="middle" x="890.62" y="-397.75" font-family="Times,serif" font-size="10.00">LEFT JOIN</text>
<text text-anchor="middle" x="890.62" y="-386.5" font-family="Times,serif" font-size="10.00">simple_condition</text>
</g>
<!-- shipments&#45;&#45;order_details -->
<g id="edge71" class="edge">
<title>shipments&#45;&#45;order_details</title>
<path fill="none" stroke="red" d="M843.88,-129.11C834.37,-134.53 824.29,-141.12 816,-148.5 776.76,-183.43 761.63,-193.17 745,-243 741.83,-252.49 742.49,-255.82 745,-265.5 747.3,-274.36 752.63,-274.66 755,-283.5 763.69,-315.85 761.55,-355.39 759.25,-377.64"/>
<text text-anchor="middle" x="781" y="-256" font-family="Times,serif" font-size="10.00">RIGHT JOIN</text>
<text text-anchor="middle" x="781" y="-244.75" font-family="Times,serif" font-size="10.00">simple_condition</text>
</g>
<!-- shipments&#45;&#45;inventory_movements -->
<g id="edge88" class="edge">
<title>shipments&#45;&#45;inventory_movements</title>
<path fill="none" stroke="blue" d="M844.31,-115.32C787.02,-119.04 668.8,-128.91 633,-148.5 575.24,-180.1 588.95,-219.88 572,-283.5 390.26,-965.62 469.44,-609.92 485,-643.5 502.89,-682.11 734.81,-864.45 778,-886.5 803.18,-899.35 814.87,-889.78 839,-904.5 859.06,-916.74 895.06,-964.71 912,-981 977.36,-1043.86 986.97,-1069.79 1065,-1116 1076.55,-1122.84 1089.66,-1128.68 1102.43,-1133.51"/>
<text text-anchor="middle" x="521" y="-634" font-family="Times,serif" font-size="10.00">LEFT JOIN</text>
<text text-anchor="middle" x="521" y="-622.75" font-family="Times,serif" font-size="10.00">simple_condition</text>
</g>
<!-- return_orders&#45;&#45;categories -->
<g id="edge20" class="edge">
<title>return_orders&#45;&#45;categories</title>
<path fill="none" stroke="blue" d="M1484.78,-304.66C1585.07,-310.25 1842.94,-325.58 1880,-337.5 2020.26,-382.6 2029.01,-449.46 2164,-508.5 2190.29,-520 2201.26,-511.97 2226,-526.5 2248.09,-539.47 2249.93,-547.9 2267,-567 2274.48,-575.37 2392,-714.52 2392,-725.75 2392,-1247.5 2392,-1247.5 2392,-1247.5 2392,-1299.61 1555.69,-1332.54 1380.1,-1338.88"/>
<text text-anchor="middle" x="2428" y="-823" font-family="Times,serif" font-size="10.00">LEFT JOIN</text>
<text text-anchor="middle" x="2428" y="-811.75" font-family="Times,serif" font-size="10.00">simple_condition</text>
</g>
<!-- return_orders&#45;&#45;locations -->
<g id="edge7" class="edge">
<title>return_orders&#45;&#45;locations</title>
<path fill="none" stroke="green" d="M1459.68,-319.67C1463.97,-325.16 1468.45,-331.4 1472,-337.5 1517.75,-416.21 1533.09,-437.24 1551,-526.5 1567.85,-610.5 1411.35,-628.39 1462,-697.5 1477.7,-718.93 1497.68,-699.65 1519,-715.5 1598.47,-774.58 1597.71,-813.6 1637,-904.5 1659.1,-955.64 1661.02,-969.89 1682,-1021.5 1684.34,-1027.26 1686.98,-1033.51 1689.39,-1039.11"/>
<text text-anchor="middle" x="1498" y="-681.25" font-family="Times,serif" font-size="10.00">INNER JOIN</text>
<text text-anchor="middle" x="1498" y="-670" font-family="Times,serif" font-size="10.00">simple_condition</text>
</g>
<!-- return_orders&#45;&#45;locations -->
<g id="edge9" class="edge">
<title>return_orders&#45;&#45;locations</title>
<path fill="none" stroke="green" d="M1471.68,-319.91C1478.7,-325.12 1485.98,-331.15 1492,-337.5 1524.71,-371.96 1524.43,-387.85 1542,-432 1549.1,-449.84 1552.07,-453.95 1557,-472.5 1582.74,-569.3 1548.6,-599.65 1570,-697.5 1571.98,-706.54 1632.44,-841.95 1636,-850.5 1653.41,-892.29 1660.93,-901.66 1674,-945 1683.87,-977.74 1690.91,-1017.15 1694.43,-1039.26"/>
<text text-anchor="middle" x="1606" y="-681.25" font-family="Times,serif" font-size="10.00">INNER JOIN</text>
<text text-anchor="middle" x="1606" y="-670" font-family="Times,serif" font-size="10.00">simple_condition</text>
</g>
<!-- return_orders&#45;&#45;shipments -->
<g id="edge79" class="edge">
<title>return_orders&#45;&#45;shipments</title>
<path fill="none" stroke="blue" d="M1405.44,-287.5C1298.58,-252.38 1005.62,-156.1 908.07,-124.04"/>
<text text-anchor="middle" x="1243.72" y="-208.75" font-family="Times,serif" font-size="10.00">LEFT JOIN</text>
<text text-anchor="middle" x="1243.72" y="-197.5" font-family="Times,serif" font-size="10.00">simple_condition</text>
</g>
<!-- return_orders&#45;&#45;payments -->
<g id="edge27" class="edge">
<title>return_orders&#45;&#45;payments</title>
<path fill="none" stroke="green" d="M1484.87,-290.45C1499.86,-285.06 1516.13,-277.07 1528,-265.5 1539.22,-254.56 1546.02,-237.9 1549.83,-225.33"/>
<text text-anchor="middle" x="1578.47" y="-256" font-family="Times,serif" font-size="10.00">INNER JOIN</text>
<text text-anchor="middle" x="1578.47" y="-244.75" font-family="Times,serif" font-size="10.00">simple_condition</text>
</g>
<!-- return_orders&#45;&#45;products -->
<g id="edge63" class="edge">
<title>return_orders&#45;&#45;products</title>
<path fill="none" stroke="blue" d="M1405.18,-303.27C1342.41,-305.24 1217,-312.3 1114,-337.5 981,-370.05 959.51,-413.08 829,-454.5 784.28,-468.69 730.7,-479.2 698.56,-484.83"/>
<text text-anchor="middle" x="1035.12" y="-397.75" font-family="Times,serif" font-size="10.00">LEFT JOIN</text>
<text text-anchor="middle" x="1035.12" y="-386.5" font-family="Times,serif" font-size="10.00">simple_condition</text>
</g>
<!-- return_orders&#45;&#45;departments -->
<g id="edge14" class="edge">
<title>return_orders&#45;&#45;departments</title>
<path fill="none" stroke="blue" d="M1405.35,-311.91C1388.51,-317.34 1369.47,-325.54 1355,-337.5 1324.06,-363.07 1337.11,-387.46 1307,-414 1260.69,-454.83 1234.96,-442.49 1181,-472.5 1088.57,-523.91 1074.73,-552.14 982,-603 964.91,-612.37 954.82,-606.31 942,-621 932.28,-632.14 928.11,-648.61 926.33,-661.07"/>
<text text-anchor="middle" x="1217" y="-492.25" font-family="Times,serif" font-size="10.00">LEFT JOIN</text>
<text text-anchor="middle" x="1217" y="-481" font-family="Times,serif" font-size="10.00">simple_condition</text>
</g>
<!-- payments&#45;&#45;categories -->
<g id="edge90" class="edge">
<title>payments&#45;&#45;categories</title>
<path fill="none" stroke="red" d="M1584.85,-212.1C1654.16,-221.3 1816.29,-242.84 1817,-243 1874.81,-255.96 1890.58,-257.88 1944,-283.5 2081.05,-349.22 2437.53,-530.15 2514,-661.5 2549.58,-722.62 2525,-749.53 2525,-820.25 2525,-1247.5 2525,-1247.5 2525,-1247.5 2525,-1306.62 1568.73,-1334.32 1380.09,-1339.2"/>
<text text-anchor="middle" x="2566.74" y="-775.75" font-family="Times,serif" font-size="10.00">RIGHT JOIN</text>
<text text-anchor="middle" x="2566.74" y="-764.5" font-family="Times,serif" font-size="10.00">simple_condition</text>
</g>
<!-- payments&#45;&#45;locations -->
<g id="edge52" class="edge">
<title>payments&#45;&#45;locations</title>
<path fill="none" stroke="red" d="M1584.95,-222.82C1595.78,-228.55 1607.78,-235.52 1618,-243 1706.8,-307.95 1699.41,-363.2 1797,-414 1833.18,-432.84 1854.4,-407.48 1887,-432 1915.18,-453.19 1914.93,-473.93 1908,-508.5 1885.94,-618.54 1844.65,-609 1861,-643.5 1866.41,-654.92 1873.61,-653.05 1883,-661.5 1913.2,-688.67 1948,-685.13 1948,-725.75 1948,-964 1948,-964 1948,-964 1948,-1010.79 1792.5,-1041.23 1726.28,-1052.07"/>
<text text-anchor="middle" x="1897" y="-634" font-family="Times,serif" font-size="10.00">RIGHT JOIN</text>
<text text-anchor="middle" x="1897" y="-622.75" font-family="Times,serif" font-size="10.00">simple_condition</text>
</g>
<!-- payments&#45;&#45;shipments -->
<g id="edge44" class="edge">
<title>payments&#45;&#45;shipments</title>
<path fill="none" stroke="green" d="M1523.01,-202.3C1471.49,-196.11 1364.99,-183.13 1275,-171 1138.36,-152.59 975.74,-128.46 908.04,-118.32"/>
<text text-anchor="middle" x="1311" y="-161.5" font-family="Times,serif" font-size="10.00">INNER JOIN</text>
<text text-anchor="middle" x="1311" y="-150.25" font-family="Times,serif" font-size="10.00">simple_condition</text>
</g>
<!-- payments&#45;&#45;shipments -->
<g id="edge89" class="edge">
<title>payments&#45;&#45;shipments</title>
<path fill="none" stroke="red" d="M1523.22,-195.4C1483.17,-182.07 1410.75,-159.61 1347,-148.5 1183.63,-120.02 984.42,-114.7 907.96,-113.72"/>
<text text-anchor="middle" x="1474.78" y="-161.5" font-family="Times,serif" font-size="10.00">RIGHT JOIN</text>
<text text-anchor="middle" x="1474.78" y="-150.25" font-family="Times,serif" font-size="10.00">simple_condition</text>
</g>
<!-- payments&#45;&#45;return_orders -->
<g id="edge97" class="edge">
<title>payments&#45;&#45;return_orders</title>
<path fill="none" stroke="red" d="M1523.22,-210.07C1499.96,-213.36 1469.2,-221.76 1452,-243 1443.01,-254.1 1441.84,-270.58 1442.58,-283.05"/>
<text text-anchor="middle" x="1488" y="-256" font-family="Times,serif" font-size="10.00">RIGHT JOIN</text>
<text text-anchor="middle" x="1488" y="-244.75" font-family="Times,serif" font-size="10.00">simple_condition</text>
</g>
<!-- payments&#45;&#45;orders -->
<g id="edge13" class="edge">
<title>payments&#45;&#45;orders</title>
<path fill="none" stroke="blue" d="M1565.9,-188.78C1576.69,-173.69 1592.23,-153.41 1601,-148.5 1640,-126.66 1773.03,-117.65 1830.83,-114.7"/>
<text text-anchor="middle" x="1637" y="-161.5" font-family="Times,serif" font-size="10.00">LEFT JOIN</text>
<text text-anchor="middle" x="1637" y="-150.25" font-family="Times,serif" font-size="10.00">simple_condition</text>
</g>
<!-- payments&#45;&#45;inventory_movements -->
<g id="edge31" class="edge">
<title>payments&#45;&#45;inventory_movements</title>
<path fill="none" stroke="blue" d="M1584.94,-214.77C1615.16,-221.49 1662.4,-232.32 1703,-243 1765.23,-259.36 1783.93,-255.78 1842,-283.5 1854.45,-289.45 2243.61,-554.77 2250,-567 2257.41,-581.18 2257.63,-588.94 2250,-603 2227.24,-644.93 2185.69,-621.3 2160,-661.5 2072.64,-798.18 2224.85,-917.95 2100,-1021.5 2068.44,-1047.67 1775.76,-1071.05 1735,-1075.5 1622.05,-1087.82 1588.65,-1060.26 1480,-1093.5 1460.86,-1099.35 1459.97,-1109.63 1441,-1116 1368.58,-1140.33 1280.43,-1147.99 1222.86,-1150.27"/>
<text text-anchor="middle" x="2196" y="-681.25" font-family="Times,serif" font-size="10.00">LEFT JOIN</text>
<text text-anchor="middle" x="2196" y="-670" font-family="Times,serif" font-size="10.00">simple_condition</text>
</g>
<!-- payments&#45;&#45;inventory_movements -->
<g id="edge86" class="edge">
<title>payments&#45;&#45;inventory_movements</title>
<path fill="none" stroke="blue" d="M1584.93,-211.55C1626.17,-216.65 1701.27,-227.21 1764,-243 1962.76,-293.03 2006.43,-341.43 2164,-472.5 2168.16,-475.96 2260.73,-552 2267,-567 2273.17,-581.76 2269.28,-587.16 2267,-603 2260.77,-646.33 2175.8,-941.96 2156,-981 2101.32,-1088.79 2020.67,-1058.52 1901,-1075.5 1813.78,-1087.88 1587.92,-1063.75 1505,-1093.5 1489.31,-1099.13 1490.49,-1109.86 1475,-1116 1430.52,-1133.63 1300.59,-1143.51 1222.82,-1148"/>
<text text-anchor="middle" x="2289.28" y="-681.25" font-family="Times,serif" font-size="10.00">LEFT JOIN</text>
<text text-anchor="middle" x="2289.28" y="-670" font-family="Times,serif" font-size="10.00">simple_condition</text>
</g>
<!-- orders&#45;&#45;inventory -->
<g id="edge98" class="edge">
<title>orders&#45;&#45;inventory</title>
<path fill="none" stroke="blue" d="M1884.26,-130.92C1889.76,-135.9 1894.85,-141.82 1898,-148.5 1923.61,-202.79 1901.11,-223.48 1902,-283.5 1902.24,-299.5 1903.12,-303.54 1902,-319.5 1897.77,-379.94 1901.01,-396.65 1883,-454.5 1880.34,-463.04 1877.13,-464.12 1874,-472.5 1850.19,-536.33 1844.51,-553.41 1836,-621 1834.75,-630.92 1831.07,-634.8 1836,-643.5 1843.66,-657.03 1858.34,-647.97 1866,-661.5 1873.88,-675.42 1873.28,-683.25 1866,-697.5 1819.01,-789.48 1478.27,-847.27 1372.94,-863.08"/>
<text text-anchor="middle" x="1910" y="-492.25" font-family="Times,serif" font-size="10.00">LEFT JOIN</text>
<text text-anchor="middle" x="1910" y="-481" font-family="Times,serif" font-size="10.00">simple_condition</text>
</g>
<!-- orders&#45;&#45;employees -->
<g id="edge32" class="edge">
<title>orders&#45;&#45;employees</title>
<path fill="none" stroke="green" d="M1861.99,-130.85C1869.7,-168.84 1882.48,-260.7 1842,-319.5 1831.4,-334.89 1819.74,-327.43 1804,-337.5 1680.56,-416.51 1686.5,-493.15 1551,-549 1483.46,-576.84 1261.45,-582.54 1176.48,-583.7"/>
<text text-anchor="middle" x="1840" y="-350.5" font-family="Times,serif" font-size="10.00">INNER JOIN</text>
<text text-anchor="middle" x="1840" y="-339.25" font-family="Times,serif" font-size="10.00">simple_condition</text>
</g>
<!-- orders&#45;&#45;locations -->
<g id="edge6" class="edge">
<title>orders&#45;&#45;locations</title>
<path fill="none" stroke="green" d="M1885.49,-114.08C1975.47,-116.22 2257.31,-124.76 2290,-148.5 2312.41,-164.77 2314,-178.31 2314,-206 2314,-349.75 2314,-349.75 2314,-349.75 2314,-542.03 2100,-533.47 2100,-725.75 2100,-964 2100,-964 2100,-964 2100,-991.69 2098.47,-1005.31 2076,-1021.5 2053.95,-1037.39 1859.05,-1036.8 1832,-1039.5 1795.57,-1043.14 1753.76,-1048.6 1726.45,-1052.35"/>
<text text-anchor="middle" x="2209.52" y="-586.75" font-family="Times,serif" font-size="10.00">INNER JOIN</text>
<text text-anchor="middle" x="2209.52" y="-575.5" font-family="Times,serif" font-size="10.00">simple_condition</text>
</g>
<!-- orders&#45;&#45;return_orders -->
<g id="edge93" class="edge">
<title>orders&#45;&#45;return_orders</title>
<path fill="none" stroke="green" d="M1830.73,-129.72C1805.49,-144.82 1767,-168.08 1734,-189 1681.84,-222.06 1675.09,-241.95 1618,-265.5 1574.38,-283.5 1520.63,-292.51 1484.73,-296.83"/>
<text text-anchor="middle" x="1770" y="-208.75" font-family="Times,serif" font-size="10.00">INNER JOIN</text>
<text text-anchor="middle" x="1770" y="-197.5" font-family="Times,serif" font-size="10.00">simple_condition</text>
</g>
<!-- orders&#45;&#45;products -->
<g id="edge51" class="edge">
<title>orders&#45;&#45;products</title>
<path fill="none" stroke="red" d="M1851.49,-130.8C1842.67,-153.32 1825.74,-193.51 1806,-225 1785.44,-257.79 1729.44,-340.53 1696,-360 1477.86,-486.98 1386.56,-424.02 1136,-454.5 1050.53,-464.9 786.45,-482.11 698.69,-487.69"/>
<text text-anchor="middle" x="1801.92" y="-303.25" font-family="Times,serif" font-size="10.00">RIGHT JOIN</text>
<text text-anchor="middle" x="1801.92" y="-292" font-family="Times,serif" font-size="10.00">simple_condition</text>
</g>
<!-- sales -->
<g id="node12" class="node">
<title>sales</title>
<path fill="lightblue" stroke="black" d="M994,-36C994,-36 964,-36 964,-36 958,-36 952,-30 952,-24 952,-24 952,-12 952,-12 952,-6 958,0 964,0 964,0 994,0 994,0 1000,0 1006,-6 1006,-12 1006,-12 1006,-24 1006,-24 1006,-30 1000,-36 994,-36"/>
<text text-anchor="middle" x="979" y="-13.72" font-family="Times,serif" font-size="12.00">sales</text>
</g>
<!-- orders&#45;&#45;sales -->
<g id="edge19" class="edge">
<title>orders&#45;&#45;sales</title>
<path fill="none" stroke="green" d="M1830.71,-104.44C1781.29,-91.98 1673.52,-66.22 1581,-54 1360.71,-24.89 1091.88,-19.99 1006.44,-19.17"/>
<text text-anchor="middle" x="1739.27" y="-67" font-family="Times,serif" font-size="10.00">INNER JOIN</text>
<text text-anchor="middle" x="1739.27" y="-55.75" font-family="Times,serif" font-size="10.00">simple_condition</text>
</g>
<!-- orders&#45;&#45;suppliers -->
<g id="edge48" class="edge">
<title>orders&#45;&#45;suppliers</title>
<path fill="none" stroke="green" d="M1871.81,-130.75C1875.43,-136.14 1878.89,-142.3 1881,-148.5 1891.95,-180.72 1885.01,-190.99 1884,-225 1882.22,-285.08 1899.23,-304.56 1876,-360 1859.34,-399.76 1831.66,-394.16 1811,-432 1794.54,-462.15 1798.98,-474.17 1800,-508.5 1801.78,-568.58 1773.89,-594.01 1808,-643.5 1819.06,-659.55 1837.41,-645.13 1848,-661.5 1856.69,-674.94 1858.39,-685.34 1848,-697.5 1789.53,-765.92 1494.13,-772.7 1399.33,-773.09"/>
<text text-anchor="middle" x="1847" y="-445" font-family="Times,serif" font-size="10.00">INNER JOIN</text>
<text text-anchor="middle" x="1847" y="-433.75" font-family="Times,serif" font-size="10.00">simple_condition</text>
</g>
<!-- products&#45;&#45;categories -->
<g id="edge8" class="edge">
<title>products&#45;&#45;categories</title>
<path fill="none" stroke="blue" d="M641.43,-493.93C561.89,-501.17 339.96,-524.77 282,-567 247.39,-592.21 107.03,-863.13 96,-904.5 89.42,-929.2 95,-936.44 95,-962 95,-1247.5 95,-1247.5 95,-1247.5 95,-1291.65 134.14,-1290.96 176,-1305 286.61,-1342.1 1138.98,-1340.82 1315.91,-1340.15"/>
<text text-anchor="middle" x="132" y="-917.5" font-family="Times,serif" font-size="10.00">LEFT JOIN</text>
<text text-anchor="middle" x="132" y="-906.25" font-family="Times,serif" font-size="10.00">simple_condition</text>
</g>
<!-- products&#45;&#45;categories -->
<g id="edge35" class="edge">
<title>products&#45;&#45;categories</title>
<path fill="none" stroke="green" d="M641.59,-500.22C623.8,-506.29 600.78,-515.3 582,-526.5 525.76,-560.02 518.45,-578.09 469,-621 321.09,-749.33 190,-766.18 190,-962 190,-1247.5 190,-1247.5 190,-1247.5 190,-1305.64 1129.81,-1334.1 1316.12,-1339.17"/>
<text text-anchor="middle" x="230.18" y="-917.5" font-family="Times,serif" font-size="10.00">INNER JOIN</text>
<text text-anchor="middle" x="230.18" y="-906.25" font-family="Times,serif" font-size="10.00">simple_condition</text>
</g>
<!-- products&#45;&#45;customer_contacts -->
<g id="edge37" class="edge">
<title>products&#45;&#45;customer_contacts</title>
<path fill="none" stroke="blue" d="M641.32,-505.65C632.74,-511.12 624.03,-518.1 618,-526.5 586.56,-570.29 602.25,-592.1 586,-643.5 572.55,-686.06 574.65,-699.54 552,-738 527.35,-779.86 480,-771.67 480,-820.25 480,-1153 480,-1153 480,-1153 480,-1194.65 515.83,-1193.83 554,-1210.5 605.86,-1233.15 670.65,-1241.25 715.07,-1244.09"/>
<text text-anchor="middle" x="516" y="-870.25" font-family="Times,serif" font-size="10.00">LEFT JOIN</text>
<text text-anchor="middle" x="516" y="-859" font-family="Times,serif" font-size="10.00">simple_condition</text>
</g>
<!-- products&#45;&#45;customer_contacts -->
<g id="edge41" class="edge">
<title>products&#45;&#45;customer_contacts</title>
<path fill="none" stroke="blue" d="M658.18,-508.71C647.03,-526.67 632,-556.05 632,-584 632,-727.75 632,-727.75 632,-727.75 632,-856.05 568,-880.95 568,-1009.25 568,-1153 568,-1153 568,-1153 568,-1217.96 656.27,-1237.42 715.23,-1243.18"/>
<text text-anchor="middle" x="643.33" y="-870.25" font-family="Times,serif" font-size="10.00">LEFT JOIN</text>
<text text-anchor="middle" x="643.33" y="-859" font-family="Times,serif" font-size="10.00">simple_condition</text>
</g>
<!-- products&#45;&#45;locations -->
<g id="edge10" class="edge">
<title>products&#45;&#45;locations</title>
<path fill="none" stroke="red" d="M665.63,-508.66C654.3,-557.19 628.53,-697.99 684,-792 685.52,-794.57 864.53,-902.83 867,-904.5 914.59,-936.55 918.11,-958.74 971,-981 1073.53,-1024.15 1107.33,-1010.23 1218,-1021.5 1316.46,-1031.53 1567.16,-1014.82 1663,-1039.5 1664.53,-1039.89 1666.08,-1040.37 1667.62,-1040.89"/>
<text text-anchor="middle" x="720" y="-775.75" font-family="Times,serif" font-size="10.00">RIGHT JOIN</text>
<text text-anchor="middle" x="720" y="-764.5" font-family="Times,serif" font-size="10.00">simple_condition</text>
</g>
<!-- products&#45;&#45;shipments -->
<g id="edge12" class="edge">
<title>products&#45;&#45;shipments</title>
<path fill="none" stroke="blue" d="M641.49,-482.07C627.02,-476.79 610.54,-468.16 601,-454.5 557.29,-391.92 564.83,-357.12 585,-283.5 603.43,-216.24 607.44,-187.89 665,-148.5 693.58,-128.95 792.5,-119.31 844.11,-115.51"/>
<text text-anchor="middle" x="621" y="-303.25" font-family="Times,serif" font-size="10.00">LEFT JOIN</text>
<text text-anchor="middle" x="621" y="-292" font-family="Times,serif" font-size="10.00">simple_condition</text>
</g>
<!-- products&#45;&#45;shipments -->
<g id="edge78" class="edge">
<title>products&#45;&#45;shipments</title>
<path fill="none" stroke="blue" d="M662.13,-472.04C660.03,-466.54 658.05,-460.37 657,-454.5 655.23,-444.66 656.27,-441.97 657,-432 661.9,-365.46 653.7,-345.24 679,-283.5 708.13,-212.4 723.13,-191.22 787,-148.5 804.39,-136.87 826.22,-128.21 843.91,-122.41"/>
<text text-anchor="middle" x="715" y="-303.25" font-family="Times,serif" font-size="10.00">LEFT JOIN</text>
<text text-anchor="middle" x="715" y="-292" font-family="Times,serif" font-size="10.00">simple_condition</text>
</g>
<!-- products&#45;&#45;return_orders -->
<g id="edge61" class="edge">
<title>products&#45;&#45;return_orders</title>
<path fill="none" stroke="blue" d="M698.56,-487.42C788.99,-480.77 1063.59,-460.18 1071,-454.5 1099.75,-432.49 1074.95,-405.06 1099,-378 1125.47,-348.21 1140.92,-349.27 1179,-337.5 1256.88,-313.43 1352.58,-305.91 1405.35,-303.57"/>
<text text-anchor="middle" x="1135" y="-397.75" font-family="Times,serif" font-size="10.00">LEFT JOIN</text>
<text text-anchor="middle" x="1135" y="-386.5" font-family="Times,serif" font-size="10.00">simple_condition</text>
</g>
<!-- products&#45;&#45;return_orders -->
<g id="edge96" class="edge">
<title>products&#45;&#45;return_orders</title>
<path fill="none" stroke="blue" d="M698.53,-487.78C787.21,-482.34 1054.36,-465.25 1092,-454.5 1200.38,-423.54 1212.11,-378.76 1317,-337.5 1345.73,-326.2 1379.45,-317.14 1405.07,-311.07"/>
<text text-anchor="middle" x="1272.13" y="-397.75" font-family="Times,serif" font-size="10.00">LEFT JOIN</text>
<text text-anchor="middle" x="1272.13" y="-386.5" font-family="Times,serif" font-size="10.00">simple_condition</text>
</g>
<!-- products&#45;&#45;customers -->
<g id="edge62" class="edge">
<title>products&#45;&#45;customers</title>
<path fill="none" stroke="green" d="M687.67,-508.83C692.65,-514.22 697.84,-520.37 702,-526.5 749.44,-596.4 718.59,-645.29 785,-697.5 814.67,-720.83 834.09,-698.91 868,-715.5 926.81,-744.27 941.04,-758.14 981,-810 1013.65,-852.38 1030.25,-915.03 1036.7,-944.92"/>
<text text-anchor="middle" x="945.13" y="-728.5" font-family="Times,serif" font-size="10.00">INNER JOIN</text>
<text text-anchor="middle" x="945.13" y="-717.25" font-family="Times,serif" font-size="10.00">simple_condition</text>
</g>
<!-- products&#45;&#45;order_details -->
<g id="edge28" class="edge">
<title>products&#45;&#45;order_details</title>
<path fill="none" stroke="green" d="M698.73,-482.23C713.99,-476.95 731.85,-468.26 743,-454.5 752.19,-443.17 755.49,-426.72 756.61,-414.31"/>
<text text-anchor="middle" x="789.33" y="-445" font-family="Times,serif" font-size="10.00">INNER JOIN</text>
<text text-anchor="middle" x="789.33" y="-433.75" font-family="Times,serif" font-size="10.00">simple_condition</text>
</g>
<!-- departments&#45;&#45;employees -->
<g id="edge69" class="edge">
<title>departments&#45;&#45;employees</title>
<path fill="none" stroke="green" d="M931.66,-661.13C937.61,-648.02 947.62,-630.67 962,-621 998.02,-596.77 1015.38,-611.26 1058,-603 1074.99,-599.71 1093.87,-595.94 1109.51,-592.79"/>
<text text-anchor="middle" x="998" y="-634" font-family="Times,serif" font-size="10.00">INNER JOIN</text>
<text text-anchor="middle" x="998" y="-622.75" font-family="Times,serif" font-size="10.00">simple_condition</text>
</g>
<!-- departments&#45;&#45;employees -->
<g id="edge70" class="edge">
<title>departments&#45;&#45;employees</title>
<path fill="none" stroke="red" d="M961.89,-671.17C983.9,-665.73 1011.79,-656.89 1034,-643.5 1046.25,-636.12 1045.04,-628.84 1057,-621 1073.18,-610.39 1093.08,-602.04 1109.67,-596.16"/>
<text text-anchor="middle" x="1093" y="-634" font-family="Times,serif" font-size="10.00">RIGHT JOIN</text>
<text text-anchor="middle" x="1093" y="-622.75" font-family="Times,serif" font-size="10.00">simple_condition</text>
</g>
<!-- departments&#45;&#45;payments -->
<g id="edge82" class="edge">
<title>departments&#45;&#45;payments</title>
<path fill="none" stroke="red" d="M922.01,-661.2C920.75,-649.4 920.62,-633.68 926,-621 930.42,-610.59 937.68,-612.38 944,-603 969.48,-565.18 974.93,-553.2 984,-508.5 987.18,-492.82 988.64,-487.81 984,-472.5 974.94,-442.59 954.06,-443.91 945,-414 940.36,-398.69 936.05,-391.27 945,-378 1034.52,-245.26 1124.08,-283.44 1279,-243 1365.85,-220.33 1472.11,-212.11 1523.4,-209.33"/>
<text text-anchor="middle" x="1010.88" y="-445" font-family="Times,serif" font-size="10.00">RIGHT JOIN</text>
<text text-anchor="middle" x="1010.88" y="-433.75" font-family="Times,serif" font-size="10.00">simple_condition</text>
</g>
<!-- departments&#45;&#45;products -->
<g id="edge60" class="edge">
<title>departments&#45;&#45;products</title>
<path fill="none" stroke="green" d="M889.84,-661.1C881.77,-656.11 873.62,-650.19 867,-643.5 824.53,-600.6 845.97,-563.15 798,-526.5 768.89,-504.26 726.57,-496.15 698.67,-493.19"/>
<text text-anchor="middle" x="876.9" y="-586.75" font-family="Times,serif" font-size="10.00">INNER JOIN</text>
<text text-anchor="middle" x="876.9" y="-575.5" font-family="Times,serif" font-size="10.00">simple_condition</text>
</g>
<!-- sales&#45;&#45;customer_contacts -->
<g id="edge100" class="edge">
<title>sales&#45;&#45;customer_contacts</title>
<path fill="none" stroke="green" d="M1006.39,-19.14C1214.48,-20.4 2538,-31.56 2538,-111.5 2538,-633.25 2538,-633.25 2538,-633.25 2538,-741.63 2444.76,-731.53 2370,-810 2322.2,-860.17 2217.4,-1029.94 2135,-1075.5 1976.83,-1162.94 1513.12,-1195.66 1333,-1210.5 1143.88,-1226.09 918.68,-1238.04 818.94,-1243"/>
<text text-anchor="middle" x="2574" y="-634" font-family="Times,serif" font-size="10.00">INNER JOIN</text>
<text text-anchor="middle" x="2574" y="-622.75" font-family="Times,serif" font-size="10.00">simple_condition</text>
</g>
<!-- sales&#45;&#45;payments -->
<g id="edge87" class="edge">
<title>sales&#45;&#45;payments</title>
<path fill="none" stroke="green" d="M1006.27,-18.92C1090.07,-19.96 1348.18,-32.91 1515,-148.5 1529.38,-158.46 1539.98,-175.59 1546.47,-188.56"/>
<text text-anchor="middle" x="1516.27" y="-114.25" font-family="Times,serif" font-size="10.00">INNER JOIN</text>
<text text-anchor="middle" x="1516.27" y="-103" font-family="Times,serif" font-size="10.00">simple_condition</text>
</g>
<!-- sales&#45;&#45;products -->
<g id="edge15" class="edge">
<title>sales&#45;&#45;products</title>
<path fill="none" stroke="red" d="M951.8,-19.55C836.98,-22.02 396.98,-32.82 377,-54 245.68,-193.18 376.01,-348.03 535,-454.5 567.39,-476.19 612.44,-484.44 641.41,-487.58"/>
<text text-anchor="middle" x="382.11" y="-256" font-family="Times,serif" font-size="10.00">RIGHT JOIN</text>
<text text-anchor="middle" x="382.11" y="-244.75" font-family="Times,serif" font-size="10.00">simple_condition</text>
</g>
<!-- sales&#45;&#45;products -->
<g id="edge77" class="edge">
<title>sales&#45;&#45;products</title>
<path fill="none" stroke="green" d="M951.71,-20.16C879.27,-24.61 679.5,-46.04 560,-148.5 470.4,-225.32 521.83,-304.16 565,-414 572.21,-432.33 568.82,-440.82 583,-454.5 599.05,-469.99 622.84,-478.92 641.49,-483.88"/>
<text text-anchor="middle" x="548.15" y="-256" font-family="Times,serif" font-size="10.00">INNER JOIN</text>
<text text-anchor="middle" x="548.15" y="-244.75" font-family="Times,serif" font-size="10.00">simple_condition</text>
</g>
<!-- sales&#45;&#45;inventory_movements -->
<g id="edge85" class="edge">
<title>sales&#45;&#45;inventory_movements</title>
<path fill="none" stroke="green" d="M951.72,-19.28C838.4,-20.63 408.17,-27.47 354,-54 323.59,-68.9 304,-77.63 304,-111.5 304,-538.75 304,-538.75 304,-538.75 304,-567.32 294.55,-576.82 306,-603 308.25,-608.14 589.5,-883.14 594,-886.5 637.13,-918.67 654.98,-915.53 700,-945 762,-985.58 880.29,-1095.71 935,-1116 942.78,-1118.89 1036.46,-1132.82 1101.02,-1142.22"/>
<text text-anchor="middle" x="342" y="-586.75" font-family="Times,serif" font-size="10.00">INNER JOIN</text>
<text text-anchor="middle" x="342" y="-575.5" font-family="Times,serif" font-size="10.00">simple_condition</text>
</g>
<!-- customers&#45;&#45;inventory -->
<g id="edge65" class="edge">
<title>customers&#45;&#45;inventory</title>
<path fill="none" stroke="red" d="M1045.2,-944.72C1050.14,-931.47 1058.94,-913.91 1073,-904.5 1111.46,-878.77 1249.37,-871.92 1311.39,-870.12"/>
<text text-anchor="middle" x="1109" y="-917.5" font-family="Times,serif" font-size="10.00">RIGHT JOIN</text>
<text text-anchor="middle" x="1109" y="-906.25" font-family="Times,serif" font-size="10.00">simple_condition</text>
</g>
<!-- customers&#45;&#45;products -->
<g id="edge17" class="edge">
<title>customers&#45;&#45;products</title>
<path fill="none" stroke="green" d="M1020.57,-944.62C1015.38,-939.32 1010.09,-933.24 1006,-927 975.19,-879.99 999.17,-848.27 958,-810 939.16,-792.49 926.61,-802.2 903,-792 829.98,-760.45 802.58,-758.05 751,-697.5 698.07,-635.36 711.78,-603.25 684,-526.5 681.91,-520.72 679.46,-514.46 677.21,-508.86"/>
<text text-anchor="middle" x="827.54" y="-728.5" font-family="Times,serif" font-size="10.00">INNER JOIN</text>
<text text-anchor="middle" x="827.54" y="-717.25" font-family="Times,serif" font-size="10.00">simple_condition</text>
</g>
<!-- suppliers&#45;&#45;categories -->
<g id="edge18" class="edge">
<title>suppliers&#45;&#45;categories</title>
<path fill="none" stroke="blue" d="M1399.26,-780.39C1417.99,-785.23 1441.58,-794.11 1457,-810 1513.42,-868.11 1482.25,-909.34 1520,-981 1526,-992.39 1576.47,-1068.1 1587,-1075.5 1611.53,-1092.72 1633.85,-1069.64 1652,-1093.5 1658.05,-1101.46 1655.57,-1106.66 1652,-1116 1608.44,-1229.93 1563.56,-1253.48 1453,-1305 1429.31,-1316.04 1401.16,-1325.23 1379.97,-1331.41"/>
<text text-anchor="middle" x="1623" y="-1059.25" font-family="Times,serif" font-size="10.00">LEFT JOIN</text>
<text text-anchor="middle" x="1623" y="-1048" font-family="Times,serif" font-size="10.00">simple_condition</text>
</g>
<!-- suppliers&#45;&#45;locations -->
<g id="edge45" class="edge">
<title>suppliers&#45;&#45;locations</title>
<path fill="none" stroke="red" d="M1399.15,-779.53C1423.5,-784.29 1458.42,-793.47 1485,-810 1505.96,-823.03 1507.84,-831.03 1523,-850.5 1547.81,-882.36 1548.86,-893.91 1572,-927 1602.26,-970.27 1605.43,-985.44 1644,-1021.5 1651.09,-1028.13 1659.57,-1034.33 1667.64,-1039.62"/>
<text text-anchor="middle" x="1608" y="-917.5" font-family="Times,serif" font-size="10.00">RIGHT JOIN</text>
<text text-anchor="middle" x="1608" y="-906.25" font-family="Times,serif" font-size="10.00">simple_condition</text>
</g>
<!-- suppliers&#45;&#45;return_orders -->
<g id="edge34" class="edge">
<title>suppliers&#45;&#45;return_orders</title>
<path fill="none" stroke="red" d="M1369.81,-755.53C1368.78,-743.04 1365.52,-726.56 1356,-715.5 1342.22,-699.49 1324.19,-714.76 1312,-697.5 1290.06,-666.43 1290.82,-561.79 1305,-526.5 1321.52,-485.37 1348.95,-491.07 1374,-454.5 1390.13,-430.95 1423.18,-354.36 1437.79,-319.75"/>
<text text-anchor="middle" x="1341" y="-539.5" font-family="Times,serif" font-size="10.00">RIGHT JOIN</text>
<text text-anchor="middle" x="1341" y="-528.25" font-family="Times,serif" font-size="10.00">simple_condition</text>
</g>
<!-- suppliers&#45;&#45;return_orders -->
<g id="edge67" class="edge">
<title>suppliers&#45;&#45;return_orders</title>
<path fill="none" stroke="green" d="M1372.58,-755.56C1373.38,-749.96 1374.25,-743.72 1375,-738 1387.25,-644.14 1385.11,-619.98 1400,-526.5 1412.35,-448.94 1432.52,-357.36 1441.02,-319.84"/>
<text text-anchor="middle" x="1436" y="-539.5" font-family="Times,serif" font-size="10.00">INNER JOIN</text>
<text text-anchor="middle" x="1436" y="-528.25" font-family="Times,serif" font-size="10.00">simple_condition</text>
</g>
<!-- suppliers&#45;&#45;return_orders -->
<g id="edge75" class="edge">
<title>suppliers&#45;&#45;return_orders</title>
<path fill="none" stroke="red" d="M1399.38,-769.31C1434.09,-764.28 1488.71,-754.01 1501,-738 1538.81,-688.76 1445.89,-722.73 1426,-697.5 1401.65,-666.62 1457.19,-624.36 1472,-549 1488.69,-464.09 1462.53,-360.56 1450.51,-319.99"/>
<text text-anchor="middle" x="1511.36" y="-539.5" font-family="Times,serif" font-size="10.00">RIGHT JOIN</text>
<text text-anchor="middle" x="1511.36" y="-528.25" font-family="Times,serif" font-size="10.00">simple_condition</text>
</g>
<!-- suppliers&#45;&#45;products -->
<g id="edge25" class="edge">
<title>suppliers&#45;&#45;products</title>
<path fill="none" stroke="blue" d="M1340.64,-768.75C1313.24,-763.96 1271.76,-754.6 1239,-738 1224.76,-730.78 1225.91,-721.21 1211,-715.5 1142.2,-689.16 951.14,-716.63 880,-697.5 828.94,-683.77 804.26,-686.86 774,-643.5 744.03,-600.56 792.09,-567.89 760,-526.5 745.31,-507.55 718.95,-498.85 698.54,-494.86"/>
<text text-anchor="middle" x="810" y="-634" font-family="Times,serif" font-size="10.00">LEFT JOIN</text>
<text text-anchor="middle" x="810" y="-622.75" font-family="Times,serif" font-size="10.00">simple_condition</text>
</g>
<!-- suppliers&#45;&#45;departments -->
<g id="edge92" class="edge">
<title>suppliers&#45;&#45;departments</title>
<path fill="none" stroke="green" d="M1340.7,-761.73C1323.96,-755.12 1302.65,-746.44 1284,-738 1263.63,-728.78 1260.44,-721.84 1239,-715.5 1141.68,-686.74 1021.04,-681.27 961.6,-680.45"/>
<text text-anchor="middle" x="1320" y="-728.5" font-family="Times,serif" font-size="10.00">INNER JOIN</text>
<text text-anchor="middle" x="1320" y="-717.25" font-family="Times,serif" font-size="10.00">simple_condition</text>
</g>
<!-- suppliers&#45;&#45;inventory_movements -->
<g id="edge36" class="edge">
<title>suppliers&#45;&#45;inventory_movements</title>
<path fill="none" stroke="green" d="M1340.62,-781.65C1322.23,-786.95 1298.91,-795.88 1282,-810 1243.99,-841.73 1242.3,-858.9 1223,-904.5 1188.29,-986.51 1170.38,-1092.57 1164.36,-1133.67"/>
<text text-anchor="middle" x="1243.26" y="-964.75" font-family="Times,serif" font-size="10.00">INNER JOIN</text>
<text text-anchor="middle" x="1243.26" y="-953.5" font-family="Times,serif" font-size="10.00">simple_condition</text>
</g>
<!-- suppliers&#45;&#45;inventory_movements -->
<g id="edge38" class="edge">
<title>suppliers&#45;&#45;inventory_movements</title>
<path fill="none" stroke="green" d="M1340.97,-779.72C1316.69,-784.6 1281.81,-793.84 1255,-810 1182.59,-853.63 1153.21,-866.84 1121,-945 1106.8,-979.47 1141.45,-1090.32 1155.97,-1133.53"/>
<text text-anchor="middle" x="1157" y="-964.75" font-family="Times,serif" font-size="10.00">INNER JOIN</text>
<text text-anchor="middle" x="1157" y="-953.5" font-family="Times,serif" font-size="10.00">simple_condition</text>
</g>
<!-- order_details&#45;&#45;employees -->
<g id="edge42" class="edge">
<title>order_details&#45;&#45;employees</title>
<path fill="none" stroke="red" d="M795.75,-413.7C850.51,-437.54 953.41,-483.26 1039,-526.5 1064.23,-539.24 1092.24,-554.82 1112.83,-566.54"/>
<text text-anchor="middle" x="1037.19" y="-492.25" font-family="Times,serif" font-size="10.00">RIGHT JOIN</text>
<text text-anchor="middle" x="1037.19" y="-481" font-family="Times,serif" font-size="10.00">simple_condition</text>
</g>
<!-- order_details&#45;&#45;locations -->
<g id="edge83" class="edge">
<title>order_details&#45;&#45;locations</title>
<path fill="none" stroke="blue" d="M795.43,-408.28C852.19,-424.92 951.99,-454.15 954,-454.5 987.23,-460.26 1228.87,-453.89 1257,-472.5 1288.66,-493.45 1273.82,-517.5 1295,-549 1344.11,-622.04 1366.87,-632.31 1426,-697.5 1510.5,-790.67 1560.86,-792.96 1619,-904.5 1643.58,-951.65 1614.03,-977.58 1644,-1021.5 1647.36,-1026.42 1657.31,-1033.42 1667.71,-1039.86"/>
<text text-anchor="middle" x="1502.11" y="-728.5" font-family="Times,serif" font-size="10.00">LEFT JOIN</text>
<text text-anchor="middle" x="1502.11" y="-717.25" font-family="Times,serif" font-size="10.00">simple_condition</text>
</g>
<!-- order_details&#45;&#45;return_orders -->
<g id="edge99" class="edge">
<title>order_details&#45;&#45;return_orders</title>
<path fill="none" stroke="red" d="M788.97,-377.58C815.46,-364.05 854.56,-346.2 891,-337.5 988.84,-314.16 1295.49,-305.61 1405.35,-303.25"/>
<text text-anchor="middle" x="927" y="-350.5" font-family="Times,serif" font-size="10.00">RIGHT JOIN</text>
<text text-anchor="middle" x="927" y="-339.25" font-family="Times,serif" font-size="10.00">simple_condition</text>
</g>
<!-- order_details&#45;&#45;products -->
<g id="edge59" class="edge">
<title>order_details&#45;&#45;products</title>
<path fill="none" stroke="blue" d="M718.33,-401.85C699.53,-406.38 678.55,-415.12 667,-432 659.04,-443.63 660.76,-459.89 663.91,-472.16"/>
<text text-anchor="middle" x="703" y="-445" font-family="Times,serif" font-size="10.00">LEFT JOIN</text>
<text text-anchor="middle" x="703" y="-433.75" font-family="Times,serif" font-size="10.00">simple_condition</text>
</g>
<!-- inventory_movements&#45;&#45;locations -->
<g id="edge33" class="edge">
<title>inventory_movements&#45;&#45;locations</title>
<path fill="none" stroke="red" d="M1201.83,-1133.51C1214.12,-1128.02 1227.66,-1121.85 1240,-1116 1260.2,-1106.42 1263.37,-1099.17 1285,-1093.5 1443.84,-1051.89 1493.5,-1110.15 1654,-1075.5 1658.55,-1074.52 1663.25,-1073.11 1667.79,-1071.51"/>
<text text-anchor="middle" x="1321" y="-1106.5" font-family="Times,serif" font-size="10.00">RIGHT JOIN</text>
<text text-anchor="middle" x="1321" y="-1095.25" font-family="Times,serif" font-size="10.00">simple_condition</text>
</g>
<!-- inventory_movements&#45;&#45;shipments -->
<g id="edge39" class="edge">
<title>inventory_movements&#45;&#45;shipments</title>
<path fill="none" stroke="blue" d="M1222.75,-1148.17C1392.23,-1139.88 1867.69,-1113.78 2019,-1075.5 2080.85,-1059.85 2103.28,-1062.68 2152,-1021.5 2168.16,-1007.84 2166.59,-999.41 2177,-981 2232.37,-883.06 2237.7,-853.98 2293,-756 2308.01,-729.41 2320.69,-726.87 2329,-697.5 2333.36,-682.1 2332.06,-677.2 2329,-661.5 2262.84,-322.42 2086.21,-202.59 1745,-148.5 1702.94,-141.83 1060,-119.73 908.02,-114.58"/>
<text text-anchor="middle" x="2360.9" y="-634" font-family="Times,serif" font-size="10.00">LEFT JOIN</text>
<text text-anchor="middle" x="2360.9" y="-622.75" font-family="Times,serif" font-size="10.00">simple_condition</text>
</g>
<!-- inventory_movements&#45;&#45;shipments -->
<g id="edge81" class="edge">
<title>inventory_movements&#45;&#45;shipments</title>
<path fill="none" stroke="red" d="M1101.29,-1142.49C1057.31,-1135.72 1002.04,-1125.79 981,-1116 894.46,-1075.74 885.01,-1044.76 814,-981 752.85,-926.09 755.8,-888.64 683,-850.5 643.77,-829.95 622.2,-856.52 585,-832.5 550.25,-810.07 563.92,-782.31 532,-756 516.64,-743.34 507.34,-749.37 491,-738 452.17,-710.98 452.15,-693.15 417,-661.5 407.35,-652.81 399.69,-655.17 394,-643.5 343.18,-539.2 463.27,-212.57 560,-148.5 583.35,-133.03 768.37,-120.09 843.98,-115.39"/>
<text text-anchor="middle" x="430" y="-634" font-family="Times,serif" font-size="10.00">RIGHT JOIN</text>
<text text-anchor="middle" x="430" y="-622.75" font-family="Times,serif" font-size="10.00">simple_condition</text>
</g>
<!-- inventory_movements&#45;&#45;customers -->
<g id="edge76" class="edge">
<title>inventory_movements&#45;&#45;customers</title>
<path fill="none" stroke="blue" d="M1122.76,-1133.51C1099.16,-1120.87 1070.74,-1101.45 1055,-1075.5 1037.18,-1046.1 1036.77,-1004.43 1038.26,-981.25"/>
<text text-anchor="middle" x="1091" y="-1059.25" font-family="Times,serif" font-size="10.00">LEFT JOIN</text>
<text text-anchor="middle" x="1091" y="-1048" font-family="Times,serif" font-size="10.00">simple_condition</text>
</g>
</g>
</svg>
